<svg width="281" height="126" viewBox="0 0 281 126" fill="none" xmlns="http://www.w3.org/2000/svg">
<g clip-path="url(#clip0_628_19)">
<path d="M97.8316 24.2642C100.074 25.2944 102.487 25.9308 104.839 26.7133C106.922 27.4053 111.228 28.1989 112.243 30.0817C112.692 30.92 114.198 31.1244 114.825 30.4454C114.93 30.3312 115.033 30.2233 115.13 30.1072C115.656 29.5299 115.901 28.65 115.375 27.9332C113.825 25.83 110.922 25.4362 108.436 24.794C105.115 23.9338 101.603 22.9701 98.1726 22.9578C97.4457 22.9568 97.1082 23.9338 97.83 24.2705L97.8316 24.2642Z" fill="white"/>
<path d="M7.16298 30.946C5.71045 29.704 5.80454 34.3124 5.8016 34.2375C5.77911 35.2427 5.7723 36.2453 5.77251 37.2498C5.77429 39.4545 5.81983 41.6639 5.91779 43.8736C6.02871 46.3495 5.23754 51.8795 7.66175 53.793C10.5018 56.0375 15.5375 52.9433 18.1333 52.0165C20.3243 51.2334 22.5136 50.4567 24.7116 49.6755C26.0252 49.2094 27.3405 48.737 28.6541 48.271C29.3144 48.0389 31.4485 46.8703 31.932 47.0571C31.3683 46.546 30.7958 46.0393 30.2321 45.5281C30.2794 45.318 30.3197 45.1061 30.3671 44.896L32.3342 43.8793C32.6889 44.0999 33.049 44.3287 33.4037 44.5494C32.9833 42.9432 30.6461 42.8792 29.8155 44.051C29.0583 45.1139 29.2725 45.8439 29.8483 46.9986C30.2004 47.7174 31.1632 48.0496 31.9277 48.1076C32.1255 48.1255 32.3178 48.1352 32.5156 48.1532C33.3028 48.2103 34.1289 47.7451 34.4827 47.1364C36.0219 44.4845 33.4783 42.3107 30.576 42.9755C25.01 44.2528 19.4871 47.031 14.1832 48.9699C13.8774 49.0789 11.5038 50.2457 11.0422 50.1185C9.94197 49.8245 10.1442 48.4752 10.0016 47.528C9.63318 45.1197 9.3188 42.7053 9.06385 40.2929C8.80891 37.8805 8.64313 35.4712 8.46331 33.0582C8.36219 31.7511 8.46984 30.9366 7.22772 30.1809C6.80611 29.9293 6.30465 30.0411 5.96634 30.3033C5.57273 30.6051 5.4792 30.8772 5.54265 31.3522C5.58454 31.6799 5.82295 32.059 6.22257 32.1363C6.29276 32.1546 6.35922 32.1585 6.4294 32.1768C7.18116 32.3124 7.83409 31.5054 7.17866 30.9433L7.16298 30.946Z" fill="white"/>
<path d="M10.1028 53.0013C14.4761 46.7008 20.3099 42.0421 27.4897 38.5166C29.416 37.5701 27.6026 34.8386 25.6635 35.7481C18.0874 39.2982 12.0178 45.0615 8.08118 51.9007C7.40618 53.0794 9.33245 54.1147 10.1028 53.0013Z" fill="white"/>
<path d="M35.9203 33.0996C39.1982 31.7711 42.5612 30.6334 46.033 29.7397C48.9323 29 52.3525 28.8209 54.9597 27.5061C56.2632 26.8487 55.5233 25.1456 54.1429 25.0347C50.8013 24.7692 47.126 26.3849 44.1237 27.4618C40.9233 28.6083 37.8485 29.9628 34.8601 31.4747C33.7282 32.0488 34.7813 33.5573 35.9289 33.0951L35.9203 33.0996Z" fill="white"/>
<path d="M63.4357 24.7304C71.1948 22.92 78.8454 22.416 86.9378 22.7756C89.0728 22.8677 88.9244 19.9034 86.8097 19.7627C78.6585 19.226 70.3405 20.5063 62.8836 23.0831C61.8131 23.4508 62.2553 25.002 63.4287 24.7286L63.4357 24.7304Z" fill="white"/>
<path d="M125.707 34.1889C128.511 36.2826 131.316 38.3762 134.13 40.4591C136.185 41.9795 139.769 43.7576 141.054 45.8725C141.493 46.6007 142.774 47.009 143.517 46.5155C143.617 46.4473 143.716 46.3854 143.816 46.3172C144.515 45.8524 145.13 44.9884 144.742 44.1187C143.632 41.6516 140.44 40.3804 138.115 38.951C134.513 36.7234 130.9 34.513 127.279 32.3007C125.998 31.5214 124.488 33.2845 125.707 34.1889Z" fill="white"/>
</g>
<path d="M62.4971 92.5859C61.8669 92.5859 61.2992 92.6953 60.7939 92.9141C60.2939 93.1276 59.8669 93.4401 59.5127 93.8516C59.1637 94.2578 58.8955 94.75 58.708 95.3281C58.5205 95.9062 58.4268 96.5573 58.4268 97.2812C58.4268 98.2396 58.5752 99.0729 58.8721 99.7812C59.1742 100.484 59.6221 101.029 60.2158 101.414C60.8148 101.799 61.5622 101.992 62.458 101.992C62.9684 101.992 63.4476 101.951 63.8955 101.867C64.3486 101.779 64.7887 101.669 65.2158 101.539V102.695C64.7992 102.852 64.3617 102.966 63.9033 103.039C63.445 103.117 62.9007 103.156 62.2705 103.156C61.109 103.156 60.1377 102.917 59.3564 102.438C58.5804 101.953 57.9971 101.271 57.6064 100.391C57.221 99.5104 57.0283 98.4714 57.0283 97.2734C57.0283 96.4089 57.1481 95.6198 57.3877 94.9062C57.6325 94.1875 57.9867 93.5677 58.4502 93.0469C58.9189 92.526 59.4919 92.125 60.1689 91.8438C60.8512 91.5573 61.6325 91.4141 62.5127 91.4141C63.0908 91.4141 63.6481 91.4714 64.1846 91.5859C64.721 91.7005 65.2054 91.8646 65.6377 92.0781L65.1064 93.2031C64.7419 93.0365 64.3408 92.8932 63.9033 92.7734C63.471 92.6484 63.0023 92.5859 62.4971 92.5859ZM68.8018 103H67.4971V90.8438H68.8018V103ZM72.8408 94.4375V103H71.5439V94.4375H72.8408ZM72.208 91.2344C72.4215 91.2344 72.6038 91.3047 72.7549 91.4453C72.9111 91.5807 72.9893 91.7943 72.9893 92.0859C72.9893 92.3724 72.9111 92.5859 72.7549 92.7266C72.6038 92.8672 72.4215 92.9375 72.208 92.9375C71.984 92.9375 71.7965 92.8672 71.6455 92.7266C71.4997 92.5859 71.4268 92.3724 71.4268 92.0859C71.4268 91.7943 71.4997 91.5807 71.6455 91.4453C71.7965 91.3047 71.984 91.2344 72.208 91.2344ZM79.0205 103.156C78.2497 103.156 77.57 102.997 76.9814 102.68C76.3929 102.362 75.9346 101.878 75.6064 101.227C75.2783 100.576 75.1143 99.7552 75.1143 98.7656C75.1143 97.7292 75.2861 96.8828 75.6299 96.2266C75.9788 95.5651 76.458 95.0755 77.0674 94.7578C77.6768 94.4401 78.3695 94.2812 79.1455 94.2812C79.5726 94.2812 79.984 94.3255 80.3799 94.4141C80.7809 94.4974 81.109 94.6042 81.3643 94.7344L80.9736 95.8203C80.7132 95.7161 80.4111 95.6224 80.0674 95.5391C79.7288 95.4557 79.4111 95.4141 79.1143 95.4141C78.5205 95.4141 78.0257 95.5417 77.6299 95.7969C77.2393 96.0521 76.945 96.4271 76.7471 96.9219C76.5544 97.4167 76.458 98.026 76.458 98.75C76.458 99.4427 76.5518 100.034 76.7393 100.523C76.932 101.013 77.2158 101.388 77.5908 101.648C77.971 101.904 78.445 102.031 79.0127 102.031C79.4658 102.031 79.8747 101.984 80.2393 101.891C80.6038 101.792 80.9346 101.677 81.2314 101.547V102.703C80.945 102.849 80.6247 102.961 80.2705 103.039C79.9215 103.117 79.5049 103.156 79.0205 103.156ZM84.5518 90.8438V97.1562C84.5518 97.3646 84.5439 97.6198 84.5283 97.9219C84.5127 98.2188 84.4997 98.4818 84.4893 98.7109H84.5439C84.6533 98.5755 84.8122 98.375 85.0205 98.1094C85.234 97.8438 85.4137 97.6302 85.5596 97.4688L88.4033 94.4375H89.9268L86.4814 98.0938L90.1768 103H88.6143L85.5908 98.9453L84.5518 99.8984V103H83.2627V90.8438H84.5518ZM97.708 103L94.458 94.4375H95.8486L97.7314 99.6172C97.8617 99.9714 97.9945 100.362 98.1299 100.789C98.2653 101.216 98.359 101.56 98.4111 101.82H98.4658C98.5283 101.56 98.6325 101.216 98.7783 100.789C98.9242 100.357 99.057 99.9661 99.1768 99.6172L101.06 94.4375H102.45L99.1924 103H97.708ZM107.028 94.2969C108.049 94.2969 108.807 94.526 109.302 94.9844C109.797 95.4427 110.044 96.1745 110.044 97.1797V103H109.099L108.849 101.734H108.786C108.547 102.047 108.297 102.31 108.036 102.523C107.776 102.732 107.474 102.891 107.13 103C106.791 103.104 106.375 103.156 105.88 103.156C105.359 103.156 104.896 103.065 104.489 102.883C104.088 102.701 103.771 102.424 103.536 102.055C103.307 101.685 103.192 101.216 103.192 100.648C103.192 99.7943 103.531 99.138 104.208 98.6797C104.885 98.2214 105.916 97.9714 107.302 97.9297L108.778 97.8672V97.3438C108.778 96.6042 108.619 96.0859 108.302 95.7891C107.984 95.4922 107.536 95.3438 106.958 95.3438C106.51 95.3438 106.083 95.4089 105.677 95.5391C105.271 95.6693 104.885 95.8229 104.521 96L104.122 95.0156C104.507 94.8177 104.95 94.6484 105.45 94.5078C105.95 94.3672 106.476 94.2969 107.028 94.2969ZM108.763 98.7812L107.458 98.8359C106.39 98.8776 105.638 99.0521 105.2 99.3594C104.763 99.6667 104.544 100.102 104.544 100.664C104.544 101.154 104.692 101.516 104.989 101.75C105.286 101.984 105.679 102.102 106.169 102.102C106.929 102.102 107.552 101.891 108.036 101.469C108.521 101.047 108.763 100.414 108.763 99.5703V98.7812ZM106.364 90.7422C106.489 90.9818 106.643 91.25 106.825 91.5469C107.013 91.8385 107.208 92.125 107.411 92.4062C107.619 92.6823 107.81 92.9193 107.981 93.1172V93.3047H107.099C106.911 93.1536 106.705 92.974 106.481 92.7656C106.263 92.5573 106.044 92.3385 105.825 92.1094C105.606 91.875 105.409 91.6536 105.231 91.4453C105.054 91.2318 104.916 91.0495 104.817 90.8984V90.7422H106.364ZM120.099 98.7031C120.099 99.4062 120.007 100.034 119.825 100.586C119.643 101.138 119.38 101.604 119.036 101.984C118.692 102.365 118.276 102.656 117.786 102.859C117.302 103.057 116.752 103.156 116.138 103.156C115.565 103.156 115.039 103.057 114.56 102.859C114.086 102.656 113.674 102.365 113.325 101.984C112.981 101.604 112.713 101.138 112.521 100.586C112.333 100.034 112.239 99.4062 112.239 98.7031C112.239 97.7656 112.398 96.9688 112.716 96.3125C113.034 95.651 113.487 95.1484 114.075 94.8047C114.669 94.4557 115.375 94.2812 116.192 94.2812C116.974 94.2812 117.656 94.4557 118.239 94.8047C118.828 95.1536 119.284 95.6589 119.606 96.3203C119.935 96.9766 120.099 97.7708 120.099 98.7031ZM113.583 98.7031C113.583 99.3906 113.674 99.987 113.856 100.492C114.039 100.997 114.32 101.388 114.7 101.664C115.08 101.94 115.57 102.078 116.169 102.078C116.763 102.078 117.25 101.94 117.63 101.664C118.015 101.388 118.299 100.997 118.481 100.492C118.664 99.987 118.755 99.3906 118.755 98.7031C118.755 98.0208 118.664 97.4323 118.481 96.9375C118.299 96.4375 118.018 96.0521 117.638 95.7812C117.257 95.5104 116.765 95.375 116.161 95.375C115.271 95.375 114.617 95.6693 114.2 96.2578C113.789 96.8464 113.583 97.6615 113.583 98.7031ZM129.544 103.156C128.461 103.156 127.601 102.789 126.966 102.055C126.336 101.315 126.021 100.224 126.021 98.7812C126.021 97.2865 126.343 96.1693 126.989 95.4297C127.635 94.6901 128.492 94.3203 129.56 94.3203C130.013 94.3203 130.409 94.3802 130.747 94.5C131.086 94.6198 131.377 94.7812 131.622 94.9844C131.872 95.1875 132.08 95.4141 132.247 95.6641H132.341C132.315 95.5026 132.291 95.2812 132.271 95C132.255 94.7188 132.247 94.4844 132.247 94.2969V93.2734H128.786V92.2969H132.247V90.8438H133.544V92.2969H134.755V93.2734H133.544V103H132.481L132.294 101.781H132.231C132.07 102.036 131.867 102.268 131.622 102.477C131.377 102.685 131.083 102.852 130.739 102.977C130.401 103.096 130.002 103.156 129.544 103.156ZM129.755 102.078C130.672 102.078 131.317 101.823 131.692 101.312C132.067 100.797 132.255 100.029 132.255 99.0078V98.7578C132.255 97.6641 132.075 96.8307 131.716 96.2578C131.356 95.6849 130.7 95.3984 129.747 95.3984C128.95 95.3984 128.354 95.6979 127.958 96.2969C127.567 96.8958 127.372 97.7266 127.372 98.7891C127.372 99.8411 127.567 100.654 127.958 101.227C128.349 101.794 128.948 102.078 129.755 102.078ZM139.513 94.2969C140.534 94.2969 141.291 94.526 141.786 94.9844C142.281 95.4427 142.528 96.1745 142.528 97.1797V103H141.583L141.333 101.734H141.271C141.031 102.047 140.781 102.31 140.521 102.523C140.26 102.732 139.958 102.891 139.614 103C139.276 103.104 138.859 103.156 138.364 103.156C137.843 103.156 137.38 103.065 136.974 102.883C136.573 102.701 136.255 102.424 136.021 102.055C135.791 101.685 135.677 101.216 135.677 100.648C135.677 99.7943 136.015 99.138 136.692 98.6797C137.369 98.2214 138.401 97.9714 139.786 97.9297L141.263 97.8672V97.3438C141.263 96.6042 141.104 96.0859 140.786 95.7891C140.468 95.4922 140.021 95.3438 139.442 95.3438C138.994 95.3438 138.567 95.4089 138.161 95.5391C137.755 95.6693 137.369 95.8229 137.005 96L136.606 95.0156C136.992 94.8177 137.435 94.6484 137.935 94.5078C138.435 94.3672 138.961 94.2969 139.513 94.2969ZM141.247 98.7812L139.942 98.8359C138.875 98.8776 138.122 99.0521 137.685 99.3594C137.247 99.6667 137.028 100.102 137.028 100.664C137.028 101.154 137.177 101.516 137.474 101.75C137.771 101.984 138.164 102.102 138.653 102.102C139.414 102.102 140.036 101.891 140.521 101.469C141.005 101.047 141.247 100.414 141.247 99.5703V98.7812ZM140.06 90.75C140.19 90.9844 140.372 91.25 140.606 91.5469C140.841 91.8385 141.088 92.125 141.349 92.4062C141.609 92.6875 141.841 92.9297 142.044 93.1328V93.3047H141.122C140.841 93.1224 140.552 92.8984 140.255 92.6328C139.958 92.3672 139.669 92.0911 139.388 91.8047C139.106 92.0911 138.82 92.3672 138.528 92.6328C138.242 92.8932 137.958 93.1172 137.677 93.3047H136.786V93.1328C136.984 92.9245 137.208 92.6797 137.458 92.3984C137.713 92.1172 137.955 91.8307 138.185 91.5391C138.419 91.2474 138.604 90.9844 138.739 90.75H140.06ZM143.849 94.4375H145.239L147.13 99.4062C147.239 99.6979 147.341 99.9792 147.435 100.25C147.528 100.516 147.612 100.771 147.685 101.016C147.757 101.26 147.815 101.497 147.856 101.727H147.911C147.984 101.466 148.088 101.125 148.224 100.703C148.359 100.276 148.505 99.8411 148.661 99.3984L150.45 94.4375H151.849L148.122 104.258C147.924 104.784 147.692 105.242 147.427 105.633C147.166 106.023 146.849 106.323 146.474 106.531C146.099 106.745 145.646 106.852 145.114 106.852C144.869 106.852 144.653 106.836 144.466 106.805C144.278 106.779 144.117 106.747 143.981 106.711V105.672C144.096 105.698 144.234 105.721 144.396 105.742C144.562 105.763 144.734 105.773 144.911 105.773C145.234 105.773 145.513 105.711 145.747 105.586C145.987 105.466 146.192 105.289 146.364 105.055C146.536 104.82 146.685 104.542 146.81 104.219L147.278 103.016L143.849 94.4375ZM160.419 103.156C159.336 103.156 158.476 102.789 157.841 102.055C157.211 101.315 156.896 100.224 156.896 98.7812C156.896 97.2865 157.218 96.1693 157.864 95.4297C158.51 94.6901 159.367 94.3203 160.435 94.3203C160.888 94.3203 161.284 94.3802 161.622 94.5C161.961 94.6198 162.252 94.7812 162.497 94.9844C162.747 95.1875 162.955 95.4141 163.122 95.6641H163.216C163.19 95.5026 163.166 95.2812 163.146 95C163.13 94.7188 163.122 94.4844 163.122 94.2969V93.2734H159.661V92.2969H163.122V90.8438H164.419V92.2969H165.63V93.2734H164.419V103H163.356L163.169 101.781H163.106C162.945 102.036 162.742 102.268 162.497 102.477C162.252 102.685 161.958 102.852 161.614 102.977C161.276 103.096 160.877 103.156 160.419 103.156ZM160.63 102.078C161.547 102.078 162.192 101.823 162.567 101.312C162.942 100.797 163.13 100.029 163.13 99.0078V98.7578C163.13 97.6641 162.95 96.8307 162.591 96.2578C162.231 95.6849 161.575 95.3984 160.622 95.3984C159.825 95.3984 159.229 95.6979 158.833 96.2969C158.442 96.8958 158.247 97.7266 158.247 98.7891C158.247 99.8411 158.442 100.654 158.833 101.227C159.224 101.794 159.823 102.078 160.63 102.078ZM170.481 94.2812C171.211 94.2812 171.836 94.4427 172.356 94.7656C172.877 95.0885 173.276 95.5417 173.552 96.125C173.828 96.7031 173.966 97.3802 173.966 98.1562V98.9609H168.052C168.067 99.9661 168.317 100.732 168.802 101.258C169.286 101.784 169.968 102.047 170.849 102.047C171.39 102.047 171.869 101.997 172.286 101.898C172.703 101.799 173.135 101.654 173.583 101.461V102.602C173.151 102.794 172.721 102.935 172.294 103.023C171.872 103.112 171.372 103.156 170.794 103.156C169.971 103.156 169.252 102.99 168.638 102.656C168.028 102.318 167.554 101.823 167.216 101.172C166.877 100.521 166.708 99.724 166.708 98.7812C166.708 97.8594 166.862 97.0625 167.169 96.3906C167.481 95.7135 167.919 95.1927 168.481 94.8281C169.049 94.4635 169.716 94.2812 170.481 94.2812ZM170.466 95.3438C169.773 95.3438 169.221 95.5703 168.81 96.0234C168.398 96.4766 168.153 97.1094 168.075 97.9219H172.606C172.601 97.4115 172.521 96.9635 172.364 96.5781C172.213 96.1875 171.981 95.8854 171.669 95.6719C171.356 95.4531 170.955 95.3438 170.466 95.3438ZM171.028 91.0781C171.19 91.3125 171.367 91.5495 171.56 91.7891C171.757 92.0286 171.958 92.2604 172.161 92.4844C172.364 92.7083 172.557 92.9193 172.739 93.1172V93.3047H172.005C171.739 93.1224 171.463 92.9193 171.177 92.6953C170.896 92.4714 170.622 92.2318 170.356 91.9766C170.08 92.2318 169.802 92.4714 169.521 92.6953C169.244 92.9193 168.974 93.1224 168.708 93.3047H167.966V93.1172C168.148 92.9193 168.341 92.7083 168.544 92.4844C168.747 92.2604 168.948 92.0286 169.146 91.7891C169.343 91.5495 169.523 91.3125 169.685 91.0781H171.028ZM172.606 89.0703C173.08 89.0703 173.448 89.1615 173.708 89.3438C173.968 89.5208 174.099 89.7943 174.099 90.1641C174.099 90.4661 174 90.6953 173.802 90.8516C173.609 91.0078 173.372 91.1172 173.091 91.1797L173.044 91.8125H172.427L172.356 90.8047C172.669 90.7578 172.906 90.6927 173.067 90.6094C173.234 90.526 173.317 90.388 173.317 90.1953C173.317 90.0078 173.244 89.8776 173.099 89.8047C172.958 89.7318 172.768 89.6953 172.528 89.6953C172.414 89.6953 172.304 89.7005 172.2 89.7109C172.101 89.7214 172.018 89.7344 171.95 89.75V89.1328C172.023 89.112 172.114 89.0964 172.224 89.0859C172.333 89.0755 172.461 89.0703 172.606 89.0703ZM182.364 98.6172L179.403 94.4375H180.888L183.146 97.7344L185.396 94.4375H186.864L183.903 98.6172L187.028 103H185.544L183.146 99.5078L180.731 103H179.263L182.364 98.6172ZM191.997 94.2812C192.726 94.2812 193.351 94.4427 193.872 94.7656C194.393 95.0885 194.791 95.5417 195.067 96.125C195.343 96.7031 195.481 97.3802 195.481 98.1562V98.9609H189.567C189.583 99.9661 189.833 100.732 190.317 101.258C190.802 101.784 191.484 102.047 192.364 102.047C192.906 102.047 193.385 101.997 193.802 101.898C194.218 101.799 194.651 101.654 195.099 101.461V102.602C194.666 102.794 194.237 102.935 193.81 103.023C193.388 103.112 192.888 103.156 192.31 103.156C191.487 103.156 190.768 102.99 190.153 102.656C189.544 102.318 189.07 101.823 188.731 101.172C188.393 100.521 188.224 99.724 188.224 98.7812C188.224 97.8594 188.377 97.0625 188.685 96.3906C188.997 95.7135 189.435 95.1927 189.997 94.8281C190.565 94.4635 191.231 94.2812 191.997 94.2812ZM191.981 95.3438C191.289 95.3438 190.737 95.5703 190.325 96.0234C189.914 96.4766 189.669 97.1094 189.591 97.9219H194.122C194.117 97.4115 194.036 96.9635 193.88 96.5781C193.729 96.1875 193.497 95.8854 193.185 95.6719C192.872 95.4531 192.471 95.3438 191.981 95.3438ZM206.981 94.2812C207.924 94.2812 208.635 94.5286 209.114 95.0234C209.593 95.513 209.833 96.3021 209.833 97.3906V103H208.552V97.4531C208.552 96.7604 208.401 96.2422 208.099 95.8984C207.802 95.5495 207.359 95.375 206.771 95.375C205.942 95.375 205.341 95.6146 204.966 96.0938C204.591 96.5729 204.403 97.2786 204.403 98.2109V103H203.114V97.4531C203.114 96.9896 203.047 96.6042 202.911 96.2969C202.781 95.9896 202.583 95.7604 202.317 95.6094C202.057 95.4531 201.726 95.375 201.325 95.375C200.757 95.375 200.302 95.4922 199.958 95.7266C199.614 95.9609 199.364 96.3099 199.208 96.7734C199.057 97.2318 198.981 97.7969 198.981 98.4688V103H197.685V94.4375H198.731L198.927 95.6484H198.997C199.169 95.3516 199.385 95.1016 199.646 94.8984C199.906 94.6953 200.198 94.5417 200.521 94.4375C200.843 94.3333 201.187 94.2812 201.552 94.2812C202.203 94.2812 202.747 94.4036 203.185 94.6484C203.627 94.888 203.948 95.2552 204.146 95.75H204.216C204.497 95.2552 204.882 94.888 205.372 94.6484C205.862 94.4036 206.398 94.2812 206.981 94.2812ZM217.958 103H216.653V90.8438H217.958V103ZM221.997 94.4375V103H220.7V94.4375H221.997ZM221.364 91.2344C221.578 91.2344 221.76 91.3047 221.911 91.4453C222.067 91.5807 222.146 91.7943 222.146 92.0859C222.146 92.3724 222.067 92.5859 221.911 92.7266C221.76 92.8672 221.578 92.9375 221.364 92.9375C221.14 92.9375 220.953 92.8672 220.802 92.7266C220.656 92.5859 220.583 92.3724 220.583 92.0859C220.583 91.7943 220.656 91.5807 220.802 91.4453C220.953 91.3047 221.14 91.2344 221.364 91.2344ZM221.364 105.742C221.146 105.742 220.961 105.672 220.81 105.531C220.659 105.391 220.583 105.177 220.583 104.891C220.583 104.599 220.659 104.383 220.81 104.242C220.961 104.107 221.146 104.039 221.364 104.039C221.588 104.039 221.776 104.107 221.927 104.242C222.078 104.383 222.153 104.599 222.153 104.891C222.153 105.177 222.078 105.391 221.927 105.531C221.776 105.672 221.588 105.742 221.364 105.742ZM228.177 103.156C227.406 103.156 226.726 102.997 226.138 102.68C225.549 102.362 225.091 101.878 224.763 101.227C224.435 100.576 224.271 99.7552 224.271 98.7656C224.271 97.7292 224.442 96.8828 224.786 96.2266C225.135 95.5651 225.614 95.0755 226.224 94.7578C226.833 94.4401 227.526 94.2812 228.302 94.2812C228.729 94.2812 229.14 94.3255 229.536 94.4141C229.937 94.4974 230.265 94.6042 230.521 94.7344L230.13 95.8203C229.869 95.7161 229.567 95.6224 229.224 95.5391C228.885 95.4557 228.567 95.4141 228.271 95.4141C227.677 95.4141 227.182 95.5417 226.786 95.7969C226.396 96.0521 226.101 96.4271 225.903 96.9219C225.711 97.4167 225.614 98.026 225.614 98.75C225.614 99.4427 225.708 100.034 225.896 100.523C226.088 101.013 226.372 101.388 226.747 101.648C227.127 101.904 227.601 102.031 228.169 102.031C228.622 102.031 229.031 101.984 229.396 101.891C229.76 101.792 230.091 101.677 230.388 101.547V102.703C230.101 102.849 229.781 102.961 229.427 103.039C229.078 103.117 228.661 103.156 228.177 103.156ZM233.716 90.8438V94.4766C233.716 94.6849 233.711 94.8958 233.7 95.1094C233.69 95.3177 233.672 95.5104 233.646 95.6875H233.731C233.909 95.3854 234.132 95.1328 234.403 94.9297C234.679 94.7214 234.992 94.5651 235.341 94.4609C235.69 94.3516 236.06 94.2969 236.45 94.2969C237.138 94.2969 237.711 94.4062 238.169 94.625C238.632 94.8438 238.979 95.1823 239.208 95.6406C239.442 96.099 239.56 96.6927 239.56 97.4219V103H238.278V97.5078C238.278 96.7943 238.114 96.2604 237.786 95.9062C237.463 95.5521 236.966 95.375 236.294 95.375C235.659 95.375 235.151 95.4974 234.771 95.7422C234.396 95.9818 234.125 96.3359 233.958 96.8047C233.797 97.2734 233.716 97.8464 233.716 98.5234V103H232.419V90.8438H233.716ZM249.153 102.094C249.367 102.094 249.586 102.076 249.81 102.039C250.034 102.003 250.216 101.958 250.356 101.906V102.914C250.205 102.982 249.994 103.039 249.724 103.086C249.458 103.133 249.198 103.156 248.942 103.156C248.489 103.156 248.078 103.078 247.708 102.922C247.338 102.76 247.041 102.49 246.817 102.109C246.599 101.729 246.489 101.203 246.489 100.531V95.4531H245.271V94.8203L246.497 94.3125L247.013 92.4531H247.794V94.4375H250.302V95.4531H247.794V100.492C247.794 101.029 247.916 101.43 248.161 101.695C248.411 101.961 248.742 102.094 249.153 102.094ZM255.981 94.2812C256.153 94.2812 256.333 94.2917 256.521 94.3125C256.708 94.3281 256.875 94.3516 257.021 94.3828L256.856 95.5859C256.716 95.5495 256.56 95.5208 256.388 95.5C256.216 95.4792 256.054 95.4688 255.903 95.4688C255.56 95.4688 255.234 95.5391 254.927 95.6797C254.625 95.8151 254.359 96.013 254.13 96.2734C253.901 96.5286 253.721 96.8385 253.591 97.2031C253.461 97.5625 253.396 97.9635 253.396 98.4062V103H252.091V94.4375H253.169L253.31 96.0156H253.364C253.541 95.6979 253.755 95.4089 254.005 95.1484C254.255 94.8828 254.544 94.6719 254.872 94.5156C255.205 94.3594 255.575 94.2812 255.981 94.2812ZM259.935 103H258.638V94.4375H259.935V103ZM258.755 90.7422C258.88 90.9818 259.034 91.25 259.216 91.5469C259.403 91.8385 259.599 92.125 259.802 92.4062C260.01 92.6823 260.2 92.9193 260.372 93.1172V93.3047H259.489C259.302 93.1536 259.096 92.974 258.872 92.7656C258.653 92.5573 258.435 92.3385 258.216 92.1094C257.997 91.875 257.799 91.6536 257.622 91.4453C257.445 91.2318 257.307 91.0495 257.208 90.8984V90.7422H258.755ZM266.739 94.2812C267.755 94.2812 268.523 94.5312 269.044 95.0312C269.565 95.526 269.825 96.3229 269.825 97.4219V103H268.544V97.5078C268.544 96.7943 268.38 96.2604 268.052 95.9062C267.729 95.5521 267.231 95.375 266.56 95.375C265.612 95.375 264.945 95.6432 264.56 96.1797C264.174 96.7161 263.981 97.4948 263.981 98.5156V103H262.685V94.4375H263.731L263.927 95.6719H263.997C264.179 95.3698 264.411 95.1172 264.692 94.9141C264.974 94.7057 265.289 94.5495 265.638 94.4453C265.987 94.3359 266.354 94.2812 266.739 94.2812ZM273.794 90.8438V94.4766C273.794 94.6849 273.789 94.8958 273.778 95.1094C273.768 95.3177 273.75 95.5104 273.724 95.6875H273.81C273.987 95.3854 274.211 95.1328 274.481 94.9297C274.757 94.7214 275.07 94.5651 275.419 94.4609C275.768 94.3516 276.138 94.2969 276.528 94.2969C277.216 94.2969 277.789 94.4062 278.247 94.625C278.711 94.8438 279.057 95.1823 279.286 95.6406C279.521 96.099 279.638 96.6927 279.638 97.4219V103H278.356V97.5078C278.356 96.7943 278.192 96.2604 277.864 95.9062C277.541 95.5521 277.044 95.375 276.372 95.375C275.737 95.375 275.229 95.4974 274.849 95.7422C274.474 95.9818 274.203 96.3359 274.036 96.8047C273.875 97.2734 273.794 97.8464 273.794 98.5234V103H272.497V90.8438H273.794ZM120.841 122.156C120.07 122.156 119.39 121.997 118.802 121.68C118.213 121.362 117.755 120.878 117.427 120.227C117.099 119.576 116.935 118.755 116.935 117.766C116.935 116.729 117.106 115.883 117.45 115.227C117.799 114.565 118.278 114.076 118.888 113.758C119.497 113.44 120.19 113.281 120.966 113.281C121.393 113.281 121.804 113.326 122.2 113.414C122.601 113.497 122.929 113.604 123.185 113.734L122.794 114.82C122.534 114.716 122.231 114.622 121.888 114.539C121.549 114.456 121.231 114.414 120.935 114.414C120.341 114.414 119.846 114.542 119.45 114.797C119.06 115.052 118.765 115.427 118.567 115.922C118.375 116.417 118.278 117.026 118.278 117.75C118.278 118.443 118.372 119.034 118.56 119.523C118.752 120.013 119.036 120.388 119.411 120.648C119.791 120.904 120.265 121.031 120.833 121.031C121.286 121.031 121.695 120.984 122.06 120.891C122.424 120.792 122.755 120.677 123.052 120.547V121.703C122.765 121.849 122.445 121.961 122.091 122.039C121.742 122.117 121.325 122.156 120.841 122.156ZM132.153 113.438V122H131.091L130.903 120.797H130.833C130.656 121.094 130.427 121.344 130.146 121.547C129.864 121.75 129.547 121.901 129.192 122C128.843 122.104 128.471 122.156 128.075 122.156C127.398 122.156 126.83 122.047 126.372 121.828C125.914 121.609 125.567 121.271 125.333 120.812C125.104 120.354 124.989 119.766 124.989 119.047V113.438H126.302V118.953C126.302 119.667 126.463 120.201 126.786 120.555C127.109 120.904 127.601 121.078 128.263 121.078C128.898 121.078 129.403 120.958 129.778 120.719C130.159 120.479 130.432 120.128 130.599 119.664C130.765 119.195 130.849 118.622 130.849 117.945V113.438H132.153ZM130.263 110.297C130.263 110.698 130.14 111.01 129.896 111.234C129.651 111.453 129.338 111.607 128.958 111.695L128.888 112.562H128.075L127.974 111.211C128.375 111.143 128.687 111.047 128.911 110.922C129.14 110.792 129.255 110.599 129.255 110.344C129.255 110.089 129.153 109.914 128.95 109.82C128.752 109.727 128.5 109.68 128.192 109.68C128.047 109.68 127.901 109.688 127.755 109.703C127.614 109.714 127.497 109.729 127.403 109.75V108.969C127.507 108.938 127.632 108.914 127.778 108.898C127.924 108.878 128.099 108.867 128.302 108.867C128.932 108.867 129.416 108.987 129.755 109.227C130.093 109.461 130.263 109.818 130.263 110.297ZM138.099 113.297C139.119 113.297 139.877 113.526 140.372 113.984C140.867 114.443 141.114 115.174 141.114 116.18V122H140.169L139.919 120.734H139.856C139.617 121.047 139.367 121.31 139.106 121.523C138.846 121.732 138.544 121.891 138.2 122C137.862 122.104 137.445 122.156 136.95 122.156C136.429 122.156 135.966 122.065 135.56 121.883C135.159 121.701 134.841 121.424 134.606 121.055C134.377 120.685 134.263 120.216 134.263 119.648C134.263 118.794 134.601 118.138 135.278 117.68C135.955 117.221 136.987 116.971 138.372 116.93L139.849 116.867V116.344C139.849 115.604 139.69 115.086 139.372 114.789C139.054 114.492 138.606 114.344 138.028 114.344C137.58 114.344 137.153 114.409 136.747 114.539C136.341 114.669 135.955 114.823 135.591 115L135.192 114.016C135.578 113.818 136.021 113.648 136.521 113.508C137.021 113.367 137.547 113.297 138.099 113.297ZM139.833 117.781L138.528 117.836C137.461 117.878 136.708 118.052 136.271 118.359C135.833 118.667 135.614 119.102 135.614 119.664C135.614 120.154 135.763 120.516 136.06 120.75C136.356 120.984 136.75 121.102 137.239 121.102C138 121.102 138.622 120.891 139.106 120.469C139.591 120.047 139.833 119.414 139.833 118.57V117.781ZM150.708 121.094C150.922 121.094 151.14 121.076 151.364 121.039C151.588 121.003 151.771 120.958 151.911 120.906V121.914C151.76 121.982 151.549 122.039 151.278 122.086C151.013 122.133 150.752 122.156 150.497 122.156C150.044 122.156 149.632 122.078 149.263 121.922C148.893 121.76 148.596 121.49 148.372 121.109C148.153 120.729 148.044 120.203 148.044 119.531V114.453H146.825V113.82L148.052 113.312L148.567 111.453H149.349V113.438H151.856V114.453H149.349V119.492C149.349 120.029 149.471 120.43 149.716 120.695C149.966 120.961 150.297 121.094 150.708 121.094ZM163.286 112.109L163.396 112.281C163.338 112.656 163.25 113.016 163.13 113.359C163.015 113.703 162.856 114.013 162.653 114.289C162.45 114.565 162.19 114.794 161.872 114.977C161.56 115.159 161.174 115.276 160.716 115.328V122H159.653L159.466 120.797H159.396C159.218 121.094 158.992 121.344 158.716 121.547C158.44 121.75 158.127 121.901 157.778 122C157.429 122.104 157.06 122.156 156.669 122.156C155.981 122.156 155.406 122.047 154.942 121.828C154.479 121.609 154.13 121.271 153.896 120.812C153.666 120.354 153.552 119.766 153.552 119.047V113.453H154.864V118.953C154.864 119.667 155.026 120.201 155.349 120.555C155.672 120.904 156.164 121.078 156.825 121.078C157.773 121.078 158.44 120.81 158.825 120.273C159.216 119.737 159.411 118.961 159.411 117.945V113.453H160.716V114.406C161.049 114.344 161.302 114.211 161.474 114.008C161.646 113.805 161.763 113.542 161.825 113.219C161.888 112.896 161.919 112.526 161.919 112.109H163.286ZM156.653 109.742C156.778 109.982 156.932 110.25 157.114 110.547C157.302 110.839 157.497 111.125 157.7 111.406C157.909 111.682 158.099 111.919 158.271 112.117V112.305H157.388C157.2 112.154 156.994 111.974 156.771 111.766C156.552 111.557 156.333 111.339 156.114 111.109C155.896 110.875 155.698 110.654 155.521 110.445C155.343 110.232 155.205 110.049 155.106 109.898V109.742H156.653ZM168.31 113.281C169.325 113.281 170.093 113.531 170.614 114.031C171.135 114.526 171.396 115.323 171.396 116.422V122H170.114V116.508C170.114 115.794 169.95 115.26 169.622 114.906C169.299 114.552 168.802 114.375 168.13 114.375C167.182 114.375 166.515 114.643 166.13 115.18C165.744 115.716 165.552 116.495 165.552 117.516V122H164.255V113.438H165.302L165.497 114.672H165.567C165.75 114.37 165.981 114.117 166.263 113.914C166.544 113.706 166.859 113.549 167.208 113.445C167.557 113.336 167.924 113.281 168.31 113.281ZM176.458 125.844C175.333 125.844 174.466 125.633 173.856 125.211C173.247 124.794 172.942 124.208 172.942 123.453C172.942 122.917 173.112 122.458 173.45 122.078C173.794 121.698 174.268 121.445 174.872 121.32C174.648 121.216 174.455 121.06 174.294 120.852C174.138 120.643 174.06 120.404 174.06 120.133C174.06 119.82 174.146 119.547 174.317 119.312C174.494 119.073 174.763 118.844 175.122 118.625C174.674 118.443 174.31 118.135 174.028 117.703C173.752 117.266 173.614 116.758 173.614 116.18C173.614 115.565 173.742 115.042 173.997 114.609C174.252 114.172 174.622 113.839 175.106 113.609C175.591 113.38 176.177 113.266 176.864 113.266C177.015 113.266 177.166 113.273 177.317 113.289C177.474 113.299 177.622 113.318 177.763 113.344C177.903 113.365 178.026 113.391 178.13 113.422H181.067V114.258L179.489 114.453C179.646 114.656 179.776 114.901 179.88 115.188C179.984 115.474 180.036 115.792 180.036 116.141C180.036 116.995 179.747 117.674 179.169 118.18C178.591 118.68 177.797 118.93 176.786 118.93C176.547 118.93 176.302 118.909 176.052 118.867C175.797 119.008 175.601 119.164 175.466 119.336C175.336 119.508 175.271 119.706 175.271 119.93C175.271 120.096 175.32 120.229 175.419 120.328C175.523 120.427 175.672 120.5 175.864 120.547C176.057 120.589 176.289 120.609 176.56 120.609H178.067C179 120.609 179.713 120.805 180.208 121.195C180.708 121.586 180.958 122.156 180.958 122.906C180.958 123.854 180.573 124.581 179.802 125.086C179.031 125.591 177.916 125.844 176.458 125.844ZM176.497 124.828C177.205 124.828 177.791 124.755 178.255 124.609C178.724 124.469 179.073 124.263 179.302 123.992C179.536 123.727 179.653 123.409 179.653 123.039C179.653 122.695 179.575 122.435 179.419 122.258C179.263 122.086 179.034 121.971 178.731 121.914C178.429 121.852 178.06 121.82 177.622 121.82H176.138C175.752 121.82 175.416 121.88 175.13 122C174.843 122.12 174.622 122.297 174.466 122.531C174.315 122.766 174.239 123.057 174.239 123.406C174.239 123.87 174.435 124.221 174.825 124.461C175.216 124.706 175.773 124.828 176.497 124.828ZM176.833 117.984C177.453 117.984 177.919 117.828 178.231 117.516C178.544 117.203 178.7 116.747 178.7 116.148C178.7 115.508 178.541 115.029 178.224 114.711C177.906 114.388 177.437 114.227 176.817 114.227C176.224 114.227 175.765 114.393 175.442 114.727C175.125 115.055 174.966 115.536 174.966 116.172C174.966 116.755 175.127 117.203 175.45 117.516C175.773 117.828 176.234 117.984 176.833 117.984ZM190.966 113.281C191.981 113.281 192.75 113.531 193.271 114.031C193.791 114.526 194.052 115.323 194.052 116.422V122H192.771V116.508C192.771 115.794 192.606 115.26 192.278 114.906C191.955 114.552 191.458 114.375 190.786 114.375C189.838 114.375 189.172 114.643 188.786 115.18C188.401 115.716 188.208 116.495 188.208 117.516V122H186.911V113.438H187.958L188.153 114.672H188.224C188.406 114.37 188.638 114.117 188.919 113.914C189.2 113.706 189.515 113.549 189.864 113.445C190.213 113.336 190.58 113.281 190.966 113.281ZM199.114 125.844C197.989 125.844 197.122 125.633 196.513 125.211C195.903 124.794 195.599 124.208 195.599 123.453C195.599 122.917 195.768 122.458 196.106 122.078C196.45 121.698 196.924 121.445 197.528 121.32C197.304 121.216 197.112 121.06 196.95 120.852C196.794 120.643 196.716 120.404 196.716 120.133C196.716 119.82 196.802 119.547 196.974 119.312C197.151 119.073 197.419 118.844 197.778 118.625C197.33 118.443 196.966 118.135 196.685 117.703C196.409 117.266 196.271 116.758 196.271 116.18C196.271 115.565 196.398 115.042 196.653 114.609C196.909 114.172 197.278 113.839 197.763 113.609C198.247 113.38 198.833 113.266 199.521 113.266C199.672 113.266 199.823 113.273 199.974 113.289C200.13 113.299 200.278 113.318 200.419 113.344C200.56 113.365 200.682 113.391 200.786 113.422H203.724V114.258L202.146 114.453C202.302 114.656 202.432 114.901 202.536 115.188C202.64 115.474 202.692 115.792 202.692 116.141C202.692 116.995 202.403 117.674 201.825 118.18C201.247 118.68 200.453 118.93 199.442 118.93C199.203 118.93 198.958 118.909 198.708 118.867C198.453 119.008 198.257 119.164 198.122 119.336C197.992 119.508 197.927 119.706 197.927 119.93C197.927 120.096 197.976 120.229 198.075 120.328C198.179 120.427 198.328 120.5 198.521 120.547C198.713 120.589 198.945 120.609 199.216 120.609H200.724C201.656 120.609 202.369 120.805 202.864 121.195C203.364 121.586 203.614 122.156 203.614 122.906C203.614 123.854 203.229 124.581 202.458 125.086C201.687 125.591 200.573 125.844 199.114 125.844ZM199.153 124.828C199.862 124.828 200.448 124.755 200.911 124.609C201.38 124.469 201.729 124.263 201.958 123.992C202.192 123.727 202.31 123.409 202.31 123.039C202.31 122.695 202.231 122.435 202.075 122.258C201.919 122.086 201.69 121.971 201.388 121.914C201.086 121.852 200.716 121.82 200.278 121.82H198.794C198.409 121.82 198.073 121.88 197.786 122C197.5 122.12 197.278 122.297 197.122 122.531C196.971 122.766 196.896 123.057 196.896 123.406C196.896 123.87 197.091 124.221 197.481 124.461C197.872 124.706 198.429 124.828 199.153 124.828ZM199.489 117.984C200.109 117.984 200.575 117.828 200.888 117.516C201.2 117.203 201.356 116.747 201.356 116.148C201.356 115.508 201.198 115.029 200.88 114.711C200.562 114.388 200.093 114.227 199.474 114.227C198.88 114.227 198.422 114.393 198.099 114.727C197.781 115.055 197.622 115.536 197.622 116.172C197.622 116.755 197.784 117.203 198.106 117.516C198.429 117.828 198.89 117.984 199.489 117.984ZM208.614 113.297C209.635 113.297 210.393 113.526 210.888 113.984C211.382 114.443 211.63 115.174 211.63 116.18V122H210.685L210.435 120.734H210.372C210.132 121.047 209.882 121.31 209.622 121.523C209.362 121.732 209.06 121.891 208.716 122C208.377 122.104 207.961 122.156 207.466 122.156C206.945 122.156 206.481 122.065 206.075 121.883C205.674 121.701 205.356 121.424 205.122 121.055C204.893 120.685 204.778 120.216 204.778 119.648C204.778 118.794 205.117 118.138 205.794 117.68C206.471 117.221 207.502 116.971 208.888 116.93L210.364 116.867V116.344C210.364 115.604 210.205 115.086 209.888 114.789C209.57 114.492 209.122 114.344 208.544 114.344C208.096 114.344 207.669 114.409 207.263 114.539C206.856 114.669 206.471 114.823 206.106 115L205.708 114.016C206.093 113.818 206.536 113.648 207.036 113.508C207.536 113.367 208.062 113.297 208.614 113.297ZM210.349 117.781L209.044 117.836C207.976 117.878 207.224 118.052 206.786 118.359C206.349 118.667 206.13 119.102 206.13 119.664C206.13 120.154 206.278 120.516 206.575 120.75C206.872 120.984 207.265 121.102 207.755 121.102C208.515 121.102 209.138 120.891 209.622 120.469C210.106 120.047 210.349 119.414 210.349 118.57V117.781ZM207.95 109.742C208.075 109.982 208.229 110.25 208.411 110.547C208.599 110.839 208.794 111.125 208.997 111.406C209.205 111.682 209.396 111.919 209.567 112.117V112.305H208.685C208.497 112.154 208.291 111.974 208.067 111.766C207.849 111.557 207.63 111.339 207.411 111.109C207.192 110.875 206.994 110.654 206.817 110.445C206.64 110.232 206.502 110.049 206.403 109.898V109.742H207.95ZM212.95 113.438H214.341L216.231 118.406C216.341 118.698 216.442 118.979 216.536 119.25C216.63 119.516 216.713 119.771 216.786 120.016C216.859 120.26 216.916 120.497 216.958 120.727H217.013C217.086 120.466 217.19 120.125 217.325 119.703C217.461 119.276 217.606 118.841 217.763 118.398L219.552 113.438H220.95L217.224 123.258C217.026 123.784 216.794 124.242 216.528 124.633C216.268 125.023 215.95 125.323 215.575 125.531C215.2 125.745 214.747 125.852 214.216 125.852C213.971 125.852 213.755 125.836 213.567 125.805C213.38 125.779 213.218 125.747 213.083 125.711V124.672C213.198 124.698 213.336 124.721 213.497 124.742C213.664 124.763 213.836 124.773 214.013 124.773C214.336 124.773 214.614 124.711 214.849 124.586C215.088 124.466 215.294 124.289 215.466 124.055C215.638 123.82 215.786 123.542 215.911 123.219L216.38 122.016L212.95 113.438Z" fill="white"/>
<defs>
<clipPath id="clip0_628_19">
<rect width="138.332" height="53.8553" fill="white" transform="translate(13.5986) rotate(14.6283)"/>
</clipPath>
</defs>
</svg>
