<svg width="260" height="737" viewBox="0 0 260 737" fill="none" xmlns="http://www.w3.org/2000/svg">
<mask id="path-1-outside-1_622_18" maskUnits="userSpaceOnUse" x="109" y="22" width="120" height="693" fill="black">
<rect fill="white" x="109" y="22" width="120" height="693"/>
<path d="M112 106.078L133.406 100.453L133.406 63.3437L112 57.5625L112 23.6562L226.687 60.9219L226.687 102.094L112 139.828L112 106.078ZM158.719 94.0469L177.469 89.125C181.635 87.9792 187.026 86.5729 193.641 84.9062C200.255 83.2917 204.995 82.224 207.859 81.7031C205.203 81.2344 200.828 80.2969 194.734 78.8906C188.641 77.5365 176.635 74.4896 158.719 69.75L158.719 94.0469ZM178.875 198.109L178.875 247.406L117.312 247.406C112.729 234.021 110.437 219.307 110.437 203.266C110.437 185.661 115.542 172.042 125.75 162.406C135.958 152.823 150.516 148.031 169.422 148.031C187.859 148.031 202.208 153.292 212.469 163.812C222.729 174.333 227.859 189.073 227.859 208.031C227.859 215.219 227.182 221.99 225.828 228.344C224.474 234.75 222.755 240.323 220.672 245.062L196.453 235.297C200.516 227.068 202.547 218.031 202.547 208.187C202.547 199.177 199.604 192.198 193.719 187.25C187.885 182.354 179.526 179.906 168.641 179.906C157.964 179.906 149.812 182.12 144.187 186.547C138.615 191.026 135.828 197.458 135.828 205.844C135.828 210.427 136.271 214.646 137.156 218.5L155.047 218.5L155.047 198.109L178.875 198.109ZM112 338.5L112 270.687L226.219 270.687L226.219 338.5L201.453 338.5L201.453 301.547L183.484 301.547L183.484 335.766L158.719 335.766L158.719 301.547L137.156 301.547L137.156 338.5L112 338.5ZM112 467.25L112 426.781L192.469 385.062L192.469 384.359C179.812 385.349 170.151 385.844 163.484 385.844L112 385.844L112 358.5L226.219 358.5L226.219 398.812L146.844 440.375L146.844 440.844C158.354 440.115 167.599 439.75 174.578 439.75L226.219 439.75L226.219 467.25L112 467.25ZM171.531 588.891C152.469 588.891 137.781 583.63 127.469 573.109C117.156 562.641 112 547.901 112 528.891L112 491.937L226.219 491.937L226.219 531.469C226.219 549.802 221.531 563.943 212.156 573.891C202.781 583.891 189.24 588.891 171.531 588.891ZM170.437 556.859C180.906 556.859 188.667 554.776 193.719 550.609C198.771 546.495 201.297 540.219 201.297 531.781L201.297 522.797L137.312 522.797L137.312 529.672C137.312 539.047 140.021 545.922 145.437 550.297C150.906 554.672 159.24 556.859 170.437 556.859ZM112 679.516L133.406 673.891L133.406 636.781L112 631L112 597.094L226.687 634.359L226.687 675.531L112 713.266L112 679.516ZM158.719 667.484L177.469 662.562C181.635 661.417 187.026 660.01 193.641 658.344C200.255 656.729 204.995 655.661 207.859 655.141C205.203 654.672 200.828 653.734 194.734 652.328C188.641 650.974 176.635 647.927 158.719 643.187L158.719 667.484Z"/>
</mask>
<path d="M112 106.078L111.746 105.111L111 105.307L111 106.078L112 106.078ZM133.406 100.453L133.66 101.42L134.406 101.224L134.406 100.453L133.406 100.453ZM133.406 63.3437L134.406 63.3437L134.406 62.578L133.667 62.3783L133.406 63.3437ZM112 57.5625L111 57.5625L111 58.3282L111.739 58.5279L112 57.5625ZM112 23.6562L112.309 22.7052L111 22.2798L111 23.6562L112 23.6562ZM226.687 60.9219L227.687 60.9219L227.687 60.1953L226.997 59.9708L226.687 60.9219ZM226.687 102.094L227 103.044L227.687 102.817L227.687 102.094L226.687 102.094ZM112 139.828L111 139.828L111 141.21L112.313 140.778L112 139.828ZM158.719 94.0469L157.719 94.0469L157.719 95.3432L158.973 95.0141L158.719 94.0469ZM177.469 89.125L177.723 90.0923L177.734 90.0892L177.469 89.125ZM193.641 84.9062L193.403 83.9347L193.396 83.9366L193.641 84.9062ZM207.859 81.7031L208.038 82.687L208.033 80.7183L207.859 81.7031ZM194.734 78.8906L194.959 77.9162L194.951 77.9144L194.734 78.8906ZM158.719 69.75L158.974 68.7832L157.719 68.4511L157.719 69.75L158.719 69.75ZM112.254 107.045L133.66 101.42L133.152 99.486L111.746 105.111L112.254 107.045ZM134.406 100.453L134.406 63.3437L132.406 63.3437L132.406 100.453L134.406 100.453ZM133.667 62.3783L112.261 56.5971L111.739 58.5279L133.146 64.3092L133.667 62.3783ZM113 57.5625L113 23.6562L111 23.6562L111 57.5625L113 57.5625ZM111.691 24.6073L226.378 61.8729L226.997 59.9708L112.309 22.7052L111.691 24.6073ZM225.687 60.9219L225.687 102.094L227.687 102.094L227.687 60.9219L225.687 60.9219ZM226.375 101.144L111.687 138.878L112.313 140.778L227 103.044L226.375 101.144ZM113 139.828L113 106.078L111 106.078L111 139.828L113 139.828ZM158.973 95.0141L177.723 90.0922L177.215 88.1578L158.465 93.0796L158.973 95.0141ZM177.734 90.0892C181.891 88.946 187.274 87.5417 193.885 85.8759L193.396 83.9366C186.778 85.6041 181.38 87.0123 177.204 88.1608L177.734 90.0892ZM193.878 85.8777C200.492 84.2633 205.206 83.202 208.038 82.687L207.68 80.7193C204.784 81.2459 200.019 82.32 193.403 83.9348L193.878 85.8777ZM208.033 80.7183C205.405 80.2545 201.052 79.3223 194.959 77.9162L194.51 79.865C200.604 81.2714 205.001 82.2142 207.686 82.6879L208.033 80.7183ZM194.951 77.9144C188.88 76.5653 176.894 73.5236 158.974 68.7832L158.463 70.7167C176.377 75.4555 188.401 78.5076 194.517 79.8668L194.951 77.9144ZM157.719 69.75L157.719 94.0469L159.719 94.0469L159.719 69.75L157.719 69.75ZM178.875 198.109L179.875 198.109L179.875 197.109L178.875 197.109L178.875 198.109ZM178.875 247.406L178.875 248.406L179.875 248.406L179.875 247.406L178.875 247.406ZM117.312 247.406L116.366 247.73L116.598 248.406L117.312 248.406L117.312 247.406ZM125.75 162.406L125.066 161.677L125.064 161.679L125.75 162.406ZM225.828 228.344L224.85 228.135L224.85 228.137L225.828 228.344ZM220.672 245.062L220.298 245.99L221.197 246.353L221.587 245.465L220.672 245.062ZM196.453 235.297L195.556 234.854L195.079 235.821L196.079 236.224L196.453 235.297ZM193.719 187.25L194.362 186.485L194.362 186.484L193.719 187.25ZM144.187 186.547L143.569 185.761L143.561 185.767L144.187 186.547ZM137.156 218.5L136.182 218.724L136.36 219.5L137.156 219.5L137.156 218.5ZM155.047 218.5L155.047 219.5L156.047 219.5L156.047 218.5L155.047 218.5ZM155.047 198.109L155.047 197.109L154.047 197.109L154.047 198.109L155.047 198.109ZM177.875 198.109L177.875 247.406L179.875 247.406L179.875 198.109L177.875 198.109ZM178.875 246.406L117.312 246.406L117.312 248.406L178.875 248.406L178.875 246.406ZM118.259 247.082C113.715 233.814 111.437 219.212 111.437 203.266L109.437 203.266C109.437 219.403 111.743 234.228 116.366 247.73L118.259 247.082ZM111.437 203.266C111.437 185.862 116.477 172.534 126.436 163.133L125.064 161.679C114.607 171.549 109.437 185.461 109.437 203.266L111.437 203.266ZM126.434 163.135C136.4 153.78 150.679 149.031 169.422 149.031L169.422 147.031C150.352 147.031 135.516 151.866 125.066 161.677L126.434 163.135ZM169.422 149.031C187.663 149.031 201.726 154.229 211.753 164.511L213.185 163.114C202.691 152.354 188.056 147.031 169.422 147.031L169.422 149.031ZM211.753 164.511C221.783 174.795 226.859 189.255 226.859 208.031L228.859 208.031C228.859 188.891 223.676 173.872 213.185 163.114L211.753 164.511ZM226.859 208.031C226.859 215.156 226.188 221.856 224.85 228.135L226.806 228.552C228.176 222.123 228.859 215.281 228.859 208.031L226.859 208.031ZM224.85 228.137C223.506 234.493 221.806 239.997 219.756 244.66L221.587 245.465C223.704 240.649 225.442 235.007 226.806 228.551L224.85 228.137ZM221.046 244.135L196.827 234.369L196.079 236.224L220.298 245.99L221.046 244.135ZM197.35 235.74C201.485 227.363 203.547 218.173 203.547 208.187L201.547 208.187C201.547 217.889 199.546 226.773 195.556 234.854L197.35 235.74ZM203.547 208.187C203.547 198.938 200.513 191.656 194.362 186.485L193.075 188.015C198.695 192.74 201.547 199.416 201.547 208.187L203.547 208.187ZM194.362 186.484C188.285 181.384 179.662 178.906 168.641 178.906L168.641 180.906C179.39 180.906 187.486 183.325 193.076 188.016L194.362 186.484ZM168.641 178.906C157.845 178.906 149.438 181.142 143.569 185.761L144.806 187.333C150.187 183.098 158.082 180.906 168.641 180.906L168.641 178.906ZM143.561 185.767C137.71 190.47 134.828 197.214 134.828 205.844L136.828 205.844C136.828 197.703 139.519 191.582 144.814 187.326L143.561 185.767ZM134.828 205.844C134.828 210.491 135.277 214.786 136.182 218.724L138.131 218.276C137.265 214.506 136.828 210.363 136.828 205.844L134.828 205.844ZM137.156 219.5L155.047 219.5L155.047 217.5L137.156 217.5L137.156 219.5ZM156.047 218.5L156.047 198.109L154.047 198.109L154.047 218.5L156.047 218.5ZM155.047 199.109L178.875 199.109L178.875 197.109L155.047 197.109L155.047 199.109ZM112 338.5L111 338.5L111 339.5L112 339.5L112 338.5ZM112 270.687L112 269.687L111 269.687L111 270.687L112 270.687ZM226.219 270.687L227.219 270.687L227.219 269.687L226.219 269.687L226.219 270.687ZM226.219 338.5L226.219 339.5L227.219 339.5L227.219 338.5L226.219 338.5ZM201.453 338.5L200.453 338.5L200.453 339.5L201.453 339.5L201.453 338.5ZM201.453 301.547L202.453 301.547L202.453 300.547L201.453 300.547L201.453 301.547ZM183.484 301.547L183.484 300.547L182.484 300.547L182.484 301.547L183.484 301.547ZM183.484 335.766L183.484 336.766L184.484 336.766L184.484 335.766L183.484 335.766ZM158.719 335.766L157.719 335.766L157.719 336.766L158.719 336.766L158.719 335.766ZM158.719 301.547L159.719 301.547L159.719 300.547L158.719 300.547L158.719 301.547ZM137.156 301.547L137.156 300.547L136.156 300.547L136.156 301.547L137.156 301.547ZM137.156 338.5L137.156 339.5L138.156 339.5L138.156 338.5L137.156 338.5ZM113 338.5L113 270.687L111 270.687L111 338.5L113 338.5ZM112 271.687L226.219 271.687L226.219 269.687L112 269.687L112 271.687ZM225.219 270.687L225.219 338.5L227.219 338.5L227.219 270.687L225.219 270.687ZM226.219 337.5L201.453 337.5L201.453 339.5L226.219 339.5L226.219 337.5ZM202.453 338.5L202.453 301.547L200.453 301.547L200.453 338.5L202.453 338.5ZM201.453 300.547L183.484 300.547L183.484 302.547L201.453 302.547L201.453 300.547ZM182.484 301.547L182.484 335.766L184.484 335.766L184.484 301.547L182.484 301.547ZM183.484 334.766L158.719 334.766L158.719 336.766L183.484 336.766L183.484 334.766ZM159.719 335.766L159.719 301.547L157.719 301.547L157.719 335.766L159.719 335.766ZM158.719 300.547L137.156 300.547L137.156 302.547L158.719 302.547L158.719 300.547ZM136.156 301.547L136.156 338.5L138.156 338.5L138.156 301.547L136.156 301.547ZM137.156 337.5L112 337.5L112 339.5L137.156 339.5L137.156 337.5ZM112 467.25L111 467.25L111 468.25L112 468.25L112 467.25ZM112 426.781L111.54 425.893L111 426.173L111 426.781L112 426.781ZM192.469 385.062L192.929 385.95L193.469 385.67L193.469 385.062L192.469 385.062ZM192.469 384.359L193.469 384.359L193.469 383.278L192.391 383.362L192.469 384.359ZM112 385.844L111 385.844L111 386.844L112 386.844L112 385.844ZM112 358.5L112 357.5L111 357.5L111 358.5L112 358.5ZM226.219 358.5L227.219 358.5L227.219 357.5L226.219 357.5L226.219 358.5ZM226.219 398.812L226.683 399.698L227.219 399.418L227.219 398.812L226.219 398.812ZM146.844 440.375L146.38 439.489L145.844 439.77L145.844 440.375L146.844 440.375ZM146.844 440.844L145.844 440.844L145.844 441.909L146.907 441.842L146.844 440.844ZM226.219 439.75L227.219 439.75L227.219 438.75L226.219 438.75L226.219 439.75ZM226.219 467.25L226.219 468.25L227.219 468.25L227.219 467.25L226.219 467.25ZM113 467.25L113 426.781L111 426.781L111 467.25L113 467.25ZM112.46 427.669L192.929 385.95L192.008 384.175L111.54 425.893L112.46 427.669ZM193.469 385.062L193.469 384.359L191.469 384.359L191.469 385.062L193.469 385.062ZM192.391 383.362C179.742 384.351 170.111 384.844 163.484 384.844L163.484 386.844C170.191 386.844 179.883 386.346 192.547 385.356L192.391 383.362ZM163.484 384.844L112 384.844L112 386.844L163.484 386.844L163.484 384.844ZM113 385.844L113 358.5L111 358.5L111 385.844L113 385.844ZM112 359.5L226.219 359.5L226.219 357.5L112 357.5L112 359.5ZM225.219 358.5L225.219 398.812L227.219 398.812L227.219 358.5L225.219 358.5ZM225.755 397.927L146.38 439.489L147.308 441.261L226.683 399.698L225.755 397.927ZM145.844 440.375L145.844 440.844L147.844 440.844L147.844 440.375L145.844 440.375ZM146.907 441.842C158.408 441.113 167.629 440.75 174.578 440.75L174.578 438.75C167.569 438.75 158.3 439.116 146.781 439.846L146.907 441.842ZM174.578 440.75L226.219 440.75L226.219 438.75L174.578 438.75L174.578 440.75ZM225.219 439.75L225.219 467.25L227.219 467.25L227.219 439.75L225.219 439.75ZM226.219 466.25L112 466.25L112 468.25L226.219 468.25L226.219 466.25ZM127.469 573.109L128.183 572.409L128.181 572.408L127.469 573.109ZM112 491.937L112 490.937L111 490.937L111 491.937L112 491.937ZM226.219 491.937L227.219 491.937L227.219 490.937L226.219 490.937L226.219 491.937ZM212.156 573.891L211.428 573.205L211.427 573.207L212.156 573.891ZM193.719 550.609L193.087 549.834L193.082 549.838L193.719 550.609ZM201.297 522.797L202.297 522.797L202.297 521.797L201.297 521.797L201.297 522.797ZM137.312 522.797L137.312 521.797L136.312 521.797L136.312 522.797L137.312 522.797ZM145.437 550.297L144.809 551.075L144.813 551.078L145.437 550.297ZM171.531 587.891C152.655 587.891 138.256 582.686 128.183 572.409L126.755 573.809C137.306 584.574 152.283 589.891 171.531 589.891L171.531 587.891ZM128.181 572.408C118.103 562.176 113 547.719 113 528.891L111 528.891C111 548.083 116.21 563.105 126.756 573.811L128.181 572.408ZM113 528.891L113 491.937L111 491.937L111 528.891L113 528.891ZM112 492.937L226.219 492.937L226.219 490.937L112 490.937L112 492.937ZM225.219 491.937L225.219 531.469L227.219 531.469L227.219 491.937L225.219 491.937ZM225.219 531.469C225.219 549.636 220.576 563.498 211.428 573.205L212.884 574.576C222.487 564.387 227.219 549.968 227.219 531.469L225.219 531.469ZM211.427 573.207C202.292 582.95 189.048 587.891 171.531 587.891L171.531 589.891C189.431 589.891 203.27 584.831 212.886 574.575L211.427 573.207ZM170.437 557.859C181.008 557.859 189.044 555.761 194.355 551.381L193.082 549.838C188.289 553.791 180.804 555.859 170.437 555.859L170.437 557.859ZM194.35 551.385C199.701 547.027 202.297 540.424 202.297 531.781L200.297 531.781C200.297 540.014 197.841 545.963 193.087 549.834L194.35 551.385ZM202.297 531.781L202.297 522.797L200.297 522.797L200.297 531.781L202.297 531.781ZM201.297 521.797L137.312 521.797L137.312 523.797L201.297 523.797L201.297 521.797ZM136.312 522.797L136.312 529.672L138.312 529.672L138.312 522.797L136.312 522.797ZM136.312 529.672C136.312 539.237 139.082 546.449 144.809 551.075L146.066 549.519C140.959 545.394 138.312 538.856 138.312 529.672L136.312 529.672ZM144.813 551.078C150.538 555.658 159.139 557.859 170.437 557.859L170.437 555.859C159.34 555.859 151.275 553.686 146.062 549.516L144.813 551.078ZM112 679.516L111.746 678.548L111 678.744L111 679.516L112 679.516ZM133.406 673.891L133.66 674.858L134.406 674.662L134.406 673.891L133.406 673.891ZM133.406 636.781L134.406 636.781L134.406 636.015L133.667 635.816L133.406 636.781ZM112 631L111 631L111 631.766L111.739 631.965L112 631ZM112 597.094L112.309 596.143L111 595.717L111 597.094L112 597.094ZM226.687 634.359L227.687 634.359L227.687 633.633L226.996 633.408L226.687 634.359ZM226.687 675.531L227 676.481L227.687 676.255L227.687 675.531L226.687 675.531ZM112 713.266L111 713.266L111 714.647L112.313 714.216L112 713.266ZM158.719 667.484L157.719 667.484L157.719 668.781L158.973 668.452L158.719 667.484ZM177.469 662.562L177.723 663.53L177.734 663.527L177.469 662.562ZM193.641 658.344L193.403 657.372L193.396 657.374L193.641 658.344ZM207.859 655.141L208.038 656.124L208.033 654.156L207.859 655.141ZM194.734 652.328L194.959 651.354L194.951 651.352L194.734 652.328ZM158.719 643.187L158.974 642.221L157.719 641.889L157.719 643.187L158.719 643.187ZM112.254 680.483L133.66 674.858L133.152 672.923L111.746 678.548L112.254 680.483ZM134.406 673.891L134.406 636.781L132.406 636.781L132.406 673.891L134.406 673.891ZM133.667 635.816L112.261 630.035L111.739 631.965L133.145 637.747L133.667 635.816ZM113 631L113 597.094L111 597.094L111 631L113 631ZM111.691 598.045L226.378 635.31L226.996 633.408L112.309 596.143L111.691 598.045ZM225.687 634.359L225.687 675.531L227.687 675.531L227.687 634.359L225.687 634.359ZM226.375 674.581L111.687 712.316L112.313 714.216L227 676.481L226.375 674.581ZM113 713.266L113 679.516L111 679.516L111 713.266L113 713.266ZM158.973 668.452L177.723 663.53L177.215 661.595L158.465 666.517L158.973 668.452ZM177.734 663.527C181.891 662.384 187.274 660.979 193.885 659.313L193.396 657.374C186.778 659.042 181.38 660.45 177.204 661.598L177.734 663.527ZM193.878 659.315C200.492 657.701 205.206 656.639 208.038 656.124L207.68 654.157C204.784 654.683 200.019 655.758 193.403 657.372L193.878 659.315ZM208.033 654.156C205.405 653.692 201.052 652.76 194.959 651.354L194.509 653.303C200.604 654.709 205.001 655.652 207.686 656.125L208.033 654.156ZM194.951 651.352C188.88 650.003 176.894 646.961 158.974 642.221L158.463 644.154C176.377 648.893 188.401 651.945 194.517 653.304L194.951 651.352ZM157.719 643.187L157.719 667.484L159.719 667.484L159.719 643.187L157.719 643.187Z" fill="white" fill-opacity="0.4" mask="url(#path-1-outside-1_622_18)"/>
<path d="M63.418 86.2227C53.8477 86.2227 46.4453 83.3906 41.2109 77.7266C36.0156 72.1016 33.418 64.0937 33.418 53.7031L33.418 47.1992L5 47.1992L5 24.0547L90.6641 24.0547L90.6641 53.7031C90.6641 64.5234 88.3008 72.6484 83.5742 78.0781C78.8477 83.5078 72.1289 86.2227 63.418 86.2227ZM52.2852 47.1992L52.2852 51.418C52.2852 54.8945 53.2617 57.6484 55.2148 59.6797C57.168 61.75 59.8633 62.7852 63.3008 62.7852C69.082 62.7852 71.9727 59.582 71.9727 53.1758L71.9727 47.1992L52.2852 47.1992ZM90.6641 99.875L90.6641 129.758C90.6641 141.398 88.9258 150.031 85.4492 155.656C82.0117 161.32 76.6406 164.152 69.3359 164.152C64.5312 164.152 60.4297 162.922 57.0312 160.461C53.6328 158 51.4453 154.758 50.4687 150.734L49.8828 150.734C48.4766 156.047 46.1328 159.895 42.8516 162.277C39.5703 164.66 35.3125 165.852 30.0781 165.852C22.3047 165.852 16.1719 162.922 11.6797 157.062C7.22656 151.242 4.99999 143.293 4.99999 133.215L5 99.875L90.6641 99.875ZM57.793 123.02L57.793 129.992C57.793 133.312 58.4766 135.871 59.8437 137.668C61.2109 139.504 63.2422 140.422 65.9375 140.422C70.7422 140.422 73.1445 136.789 73.1445 129.523L73.1445 123.02L57.793 123.02ZM40.8594 123.02L22.8711 123.02L22.8711 131.164C22.8711 138.391 25.918 142.004 32.0117 142.004C34.8633 142.004 37.0508 141.027 38.5742 139.074C40.0977 137.16 40.8594 134.367 40.8594 130.695L40.8594 123.02ZM72.9101 218.879C72.9101 213.371 70.6445 209.074 66.1133 205.988C61.6211 202.902 55.4101 201.359 47.4805 201.359C30.9961 201.359 22.7539 207.629 22.7539 220.168C22.7539 223.957 23.2812 227.629 24.3359 231.184C25.3906 234.738 26.6601 238.312 28.1445 241.906L8.57421 241.906C5.41015 234.758 3.82812 226.672 3.82812 217.648C3.82812 204.719 7.57812 194.797 15.0781 187.883C22.5781 181.008 33.418 177.57 47.5976 177.57C56.4648 177.57 64.2578 179.23 70.9766 182.551C77.6953 185.91 82.8516 190.715 86.4453 196.965C90.0781 203.254 91.8945 210.637 91.8945 219.113C91.8945 228.371 89.8828 237.219 85.8594 245.656L67.6367 238.566C69.1211 235.402 70.3711 232.238 71.3867 229.074C72.4023 225.91 72.9101 222.512 72.9101 218.879ZM72.0898 343.449C66.7773 343.449 62.207 341.828 58.3789 338.586C54.5898 335.344 51.8359 330.656 50.1172 324.523L49.7656 324.523C47.9687 338.82 41.2109 345.969 29.4922 345.969C21.5234 345.969 15.2539 342.805 10.6836 336.477C6.11327 330.187 3.82811 321.437 3.82811 310.227C3.82811 305.617 4.16014 301.34 4.82421 297.395C5.48827 293.488 6.69921 289.25 8.45702 284.68L27.6758 284.68C25.7617 288.43 24.3359 292.238 23.3984 296.105C22.5 300.012 22.0508 303.605 22.0508 306.887C22.0508 311.965 22.7539 315.656 24.1601 317.961C25.6055 320.305 27.8515 321.477 30.8984 321.477C33.2422 321.477 35.039 320.871 36.289 319.66C37.5781 318.449 38.5351 316.496 39.1601 313.801C39.8242 311.105 40.1562 307.59 40.1562 303.254L40.1562 297.98L57.5586 297.98L57.5586 303.371C57.5586 315.129 60.5664 321.008 66.582 321.008C68.8476 321.008 70.5273 320.129 71.6211 318.371C72.7148 316.652 73.2617 314.328 73.2617 311.398C73.2617 305.93 71.4258 300.266 67.7539 294.406L83.2226 284.797C86.3476 289.328 88.5742 293.957 89.9023 298.684C91.2305 303.449 91.8945 308.898 91.8945 315.031C91.8945 323.898 90.1367 330.852 86.6211 335.891C83.1055 340.93 78.2617 343.449 72.0898 343.449ZM47.7148 416.984C32.5586 416.984 21.4453 414.445 14.375 409.367C7.34373 404.289 3.82811 396.516 3.82811 386.047C3.82811 375.812 7.49998 368.098 14.8437 362.902C22.2265 357.707 33.1836 355.109 47.7148 355.109C62.9492 355.109 74.1211 357.648 81.2305 362.727C88.3398 367.805 91.8945 375.578 91.8945 386.047C91.8945 396.242 88.1836 403.937 80.7617 409.133C73.3789 414.367 62.3633 416.984 47.7148 416.984ZM47.7148 378.137C38.0273 378.137 31.3672 378.742 27.7344 379.953C24.1015 381.164 22.2851 383.195 22.2851 386.047C22.2851 388.937 24.1601 390.969 27.9101 392.141C31.6601 393.352 38.2617 393.957 47.7148 393.957C57.207 393.957 63.8476 393.352 67.6367 392.141C71.4648 390.93 73.3789 388.898 73.3789 386.047C73.3789 383.195 71.543 381.164 67.8711 379.953C64.1992 378.742 57.4805 378.137 47.7148 378.137Z" fill="white" fill-opacity="0.21"/>
</svg>
