<svg width="974" height="258" viewBox="0 0 974 258" fill="none" xmlns="http://www.w3.org/2000/svg">
<mask id="path-1-outside-1_278_275" maskUnits="userSpaceOnUse" x="-1" y="-1" width="976" height="260" fill="black">
<rect fill="white" x="-1" y="-1" width="976" height="260"/>
<path d="M102.116 2.99999C110.82 2.99999 118.244 4.45066 124.388 7.352C130.617 10.168 135.353 14.2213 138.596 19.512C141.839 24.7173 143.46 30.8613 143.46 37.944C143.46 45.0267 141.839 51.2133 138.596 56.504C135.353 61.7093 130.617 65.7627 124.388 68.664C118.244 71.48 110.82 72.888 102.116 72.888H61.54V47.16H99.94C103.183 47.16 105.7 46.3493 107.492 44.728C109.284 43.1067 110.18 40.8453 110.18 37.944C110.18 34.9573 109.284 32.696 107.492 31.16C105.7 29.5387 103.183 28.728 99.94 28.728H64.356L79.204 13.88V99H46.18V2.99999H102.116ZM186.329 2.99999V84.408L171.481 69.56H242.905V99H153.305V2.99999H186.329ZM276.089 82.872V56.632H341.497V82.872H276.089ZM331.385 2.99999L373.497 99H338.297L305.145 17.592H313.593L280.441 99H245.241L287.353 2.99999H331.385ZM469.765 74.936L460.805 77.112V2.99999H492.805V99H451.461L403.845 25.016L412.805 22.84V99H380.805V2.99999H423.429L469.765 74.936ZM597.14 74.936L588.18 77.112V2.99999H620.18V99H578.836L531.22 25.016L540.18 22.84V99H508.18V2.99999H550.804L597.14 74.936ZM635.555 2.99999H668.579V99H635.555V2.99999ZM772.89 74.936L763.93 77.112V2.99999H795.93V99H754.586L706.97 25.016L715.93 22.84V99H683.93V2.99999H726.554L772.89 74.936ZM911.145 57.528C910.804 63.16 909.609 68.6213 907.561 73.912C905.598 79.1173 902.654 83.8107 898.729 87.992C894.889 92.088 889.982 95.3307 884.009 97.72C878.036 100.109 870.953 101.304 862.761 101.304C855.337 101.304 848.297 100.237 841.641 98.104C835.07 95.9707 829.225 92.8133 824.105 88.632C819.07 84.3653 815.102 79.1173 812.201 72.888C809.3 66.5733 807.849 59.2773 807.849 51C807.849 42.7227 809.3 35.4693 812.201 29.24C815.102 22.9253 819.156 17.6773 824.361 13.496C829.566 9.22933 835.582 6.02933 842.409 3.896C849.236 1.76266 856.617 0.695999 864.553 0.695999C875.646 0.695999 885.118 2.36 892.969 5.688C900.905 8.93066 907.262 13.4107 912.041 19.128C916.905 24.8453 920.105 31.4587 921.641 38.968H888.489C887.721 36.5787 886.185 34.5733 883.881 32.952C881.662 31.2453 878.932 29.9653 875.689 29.112C872.446 28.1733 868.82 27.704 864.809 27.704C859.86 27.704 855.593 28.5573 852.009 30.264C848.425 31.8853 845.652 34.4027 843.689 37.816C841.812 41.2293 840.873 45.624 840.873 51C840.873 56.4613 841.94 60.984 844.073 64.568C846.292 68.152 849.406 70.7973 853.417 72.504C857.513 74.2107 862.334 75.064 867.881 75.064C873.257 75.064 878.036 74.4667 882.217 73.272C886.398 71.992 889.769 70.072 892.329 67.512C894.974 64.8667 896.596 61.5387 897.193 57.528H911.145ZM869.929 66.36V47.672H922.409V99H899.497L894.633 62.264L900.393 66.36H869.929ZM72.562 208.408L75.122 202.52C82.3753 202.776 88.434 203.928 93.298 205.976C98.162 208.024 101.789 210.883 104.178 214.552C106.653 218.136 107.89 222.445 107.89 227.48C107.89 232.685 106.695 237.379 104.306 241.56C102.002 245.741 98.4607 249.027 93.682 251.416C88.9033 253.805 82.93 255 75.762 255H0.37L7.666 205.72L0.37 159H73.074C81.9487 159 88.9033 161.091 93.938 165.272C98.9727 169.368 101.49 175.085 101.49 182.424C101.49 186.605 100.551 190.531 98.674 194.2C96.7967 197.869 93.7247 200.984 89.458 203.544C85.2767 206.019 79.6447 207.64 72.562 208.408ZM32.626 247.832L20.082 233.112H65.266C68.082 233.112 70.3007 232.387 71.922 230.936C73.5433 229.4 74.354 227.352 74.354 224.792C74.354 222.488 73.5433 220.525 71.922 218.904C70.386 217.283 68.082 216.472 65.01 216.472H27.122V194.968H60.146C62.3647 194.968 64.1993 194.285 65.65 192.92C67.186 191.555 67.954 189.805 67.954 187.672C67.954 185.709 67.2713 184.088 65.906 182.808C64.5407 181.528 62.6207 180.888 60.146 180.888H20.21L32.626 166.168L39.154 205.72L32.626 247.832ZM173.214 257.304C161.523 257.304 151.283 255.213 142.494 251.032C133.79 246.851 127.006 241.005 122.142 233.496C117.278 225.901 114.846 217.069 114.846 207C114.846 196.931 117.278 188.141 122.142 180.632C127.006 173.037 133.79 167.149 142.494 162.968C151.283 158.787 161.523 156.696 173.214 156.696C184.905 156.696 195.102 158.787 203.806 162.968C212.595 167.149 219.422 173.037 224.286 180.632C229.15 188.141 231.582 196.931 231.582 207C231.582 217.069 229.15 225.901 224.286 233.496C219.422 241.005 212.595 246.851 203.806 251.032C195.102 255.213 184.905 257.304 173.214 257.304ZM173.214 227.864C178.419 227.864 182.899 227.053 186.654 225.432C190.409 223.725 193.267 221.336 195.23 218.264C197.278 215.107 198.302 211.352 198.302 207C198.302 202.648 197.278 198.936 195.23 195.864C193.267 192.707 190.409 190.317 186.654 188.696C182.899 186.989 178.419 186.136 173.214 186.136C168.009 186.136 163.529 186.989 159.774 188.696C156.019 190.317 153.118 192.707 151.07 195.864C149.107 198.936 148.126 202.648 148.126 207C148.126 211.352 149.107 215.107 151.07 218.264C153.118 221.336 156.019 223.725 159.774 225.432C163.529 227.053 168.009 227.864 173.214 227.864ZM298.089 257.304C286.398 257.304 276.158 255.213 267.369 251.032C258.665 246.851 251.881 241.005 247.017 233.496C242.153 225.901 239.721 217.069 239.721 207C239.721 196.931 242.153 188.141 247.017 180.632C251.881 173.037 258.665 167.149 267.369 162.968C276.158 158.787 286.398 156.696 298.089 156.696C309.78 156.696 319.977 158.787 328.681 162.968C337.47 167.149 344.297 173.037 349.161 180.632C354.025 188.141 356.457 196.931 356.457 207C356.457 217.069 354.025 225.901 349.161 233.496C344.297 241.005 337.47 246.851 328.681 251.032C319.977 255.213 309.78 257.304 298.089 257.304ZM298.089 227.864C303.294 227.864 307.774 227.053 311.529 225.432C315.284 223.725 318.142 221.336 320.105 218.264C322.153 215.107 323.177 211.352 323.177 207C323.177 202.648 322.153 198.936 320.105 195.864C318.142 192.707 315.284 190.317 311.529 188.696C307.774 186.989 303.294 186.136 298.089 186.136C292.884 186.136 288.404 186.989 284.649 188.696C280.894 190.317 277.993 192.707 275.945 195.864C273.982 198.936 273.001 202.648 273.001 207C273.001 211.352 273.982 215.107 275.945 218.264C277.993 221.336 280.894 223.725 284.649 225.432C288.404 227.053 292.884 227.864 298.089 227.864ZM394.498 173.208H427.522V255H394.498V173.208ZM359.938 159H462.082V188.44H359.938V159ZM579.516 213.4C578.492 222.189 575.463 229.869 570.428 236.44C565.479 243.011 558.908 248.131 550.716 251.8C542.524 255.469 533.137 257.304 522.556 257.304C511.121 257.304 501.137 255.213 492.604 251.032C484.071 246.851 477.415 241.005 472.636 233.496C467.943 225.901 465.596 217.069 465.596 207C465.596 196.931 467.943 188.141 472.636 180.632C477.415 173.037 484.071 167.149 492.604 162.968C501.137 158.787 511.121 156.696 522.556 156.696C533.137 156.696 542.524 158.531 550.716 162.2C558.908 165.869 565.479 170.989 570.428 177.56C575.463 184.131 578.492 191.811 579.516 200.6H546.364C545.596 197.272 544.188 194.456 542.14 192.152C540.092 189.763 537.404 187.971 534.076 186.776C530.833 185.496 526.993 184.856 522.556 184.856C517.607 184.856 513.34 185.752 509.756 187.544C506.257 189.251 503.569 191.768 501.692 195.096C499.815 198.424 498.876 202.392 498.876 207C498.876 211.608 499.815 215.576 501.692 218.904C503.569 222.147 506.257 224.664 509.756 226.456C513.34 228.248 517.607 229.144 522.556 229.144C526.993 229.144 530.833 228.589 534.076 227.48C537.404 226.285 540.092 224.536 542.14 222.232C544.188 219.843 545.596 216.899 546.364 213.4H579.516ZM607.964 238.872V212.632H673.372V238.872H607.964ZM663.26 159L705.372 255H670.172L637.02 173.592H645.468L612.316 255H577.116L619.228 159H663.26ZM860.52 159V255H829.16V171.416L835.176 172.184L802.92 255H770.28L738.024 172.568L744.04 171.672V255H712.68V159H763.752L792.424 237.208H781.032L809.448 159H860.52ZM931.866 159C940.57 159 947.994 160.451 954.138 163.352C960.367 166.168 965.103 170.221 968.346 175.512C971.589 180.717 973.21 186.861 973.21 193.944C973.21 201.027 971.589 207.213 968.346 212.504C965.103 217.709 960.367 221.763 954.138 224.664C947.994 227.48 940.57 228.888 931.866 228.888H891.29V203.16H929.69C932.933 203.16 935.45 202.349 937.242 200.728C939.034 199.107 939.93 196.845 939.93 193.944C939.93 190.957 939.034 188.696 937.242 187.16C935.45 185.539 932.933 184.728 929.69 184.728H894.106L908.954 169.88V255H875.93V159H931.866Z"/>
</mask>
<path d="M124.388 7.352L123.961 8.25624L123.969 8.25979L123.976 8.26322L124.388 7.352ZM138.596 19.512L137.743 20.0346L137.747 20.0407L138.596 19.512ZM138.596 56.504L139.445 57.0328L139.449 57.0266L138.596 56.504ZM124.388 68.664L124.805 69.5731L124.81 69.5705L124.388 68.664ZM61.54 72.888H60.54V73.888H61.54V72.888ZM61.54 47.16V46.16H60.54V47.16H61.54ZM107.492 44.728L108.163 45.4695L107.492 44.728ZM107.492 31.16L106.821 31.9015L106.831 31.9105L106.841 31.9193L107.492 31.16ZM64.356 28.728L63.6489 28.0209L61.9418 29.728H64.356V28.728ZM79.204 13.88H80.204V11.4658L78.4969 13.1729L79.204 13.88ZM79.204 99V100H80.204V99H79.204ZM46.18 99H45.18V100H46.18V99ZM46.18 2.99999V1.99999H45.18V2.99999H46.18ZM102.116 3.99999C110.712 3.99999 117.983 5.43308 123.961 8.25624L124.815 6.44775C118.505 3.46824 110.928 1.99999 102.116 1.99999V3.99999ZM123.976 8.26322C130.042 11.0055 134.616 14.9319 137.743 20.0346L139.449 18.9894C136.091 13.5108 131.192 9.33053 124.8 6.44078L123.976 8.26322ZM137.747 20.0407C140.877 25.0641 142.46 31.0187 142.46 37.944H144.46C144.46 30.7039 142.801 24.3706 139.445 18.9832L137.747 20.0407ZM142.46 37.944C142.46 44.8689 140.877 50.8693 137.743 55.9814L139.449 57.0266C142.801 51.5574 144.46 45.1845 144.46 37.944H142.46ZM137.747 55.9753C134.619 60.9966 130.041 64.9278 123.966 67.7575L124.81 69.5705C131.193 66.5975 136.087 62.4221 139.445 57.0327L137.747 55.9753ZM123.971 67.7549C117.99 70.4964 110.716 71.888 102.116 71.888V73.888C110.924 73.888 118.498 72.4636 124.805 69.5731L123.971 67.7549ZM102.116 71.888H61.54V73.888H102.116V71.888ZM62.54 72.888V47.16H60.54V72.888H62.54ZM61.54 48.16H99.94V46.16H61.54V48.16ZM99.94 48.16C103.345 48.16 106.132 47.3071 108.163 45.4695L106.821 43.9865C105.268 45.3915 103.021 46.16 99.94 46.16V48.16ZM108.163 45.4695C110.206 43.6209 111.18 41.0663 111.18 37.944H109.18C109.18 40.6244 108.362 42.5925 106.821 43.9865L108.163 45.4695ZM111.18 37.944C111.18 34.749 110.213 32.1751 108.143 30.4007L106.841 31.9193C108.355 33.2169 109.18 35.1657 109.18 37.944H111.18ZM108.163 30.4185C106.132 28.5809 103.345 27.728 99.94 27.728V29.728C103.021 29.728 105.268 30.4964 106.821 31.9015L108.163 30.4185ZM99.94 27.728H64.356V29.728H99.94V27.728ZM65.0631 29.4351L79.9111 14.5871L78.4969 13.1729L63.6489 28.0209L65.0631 29.4351ZM78.204 13.88V99H80.204V13.88H78.204ZM79.204 98H46.18V100H79.204V98ZM47.18 99V2.99999H45.18V99H47.18ZM46.18 3.99999H102.116V1.99999H46.18V3.99999ZM186.329 2.99999H187.329V1.99999H186.329V2.99999ZM186.329 84.408L185.622 85.1151L187.329 86.8222V84.408H186.329ZM171.481 69.56V68.56H169.067L170.774 70.2671L171.481 69.56ZM242.905 69.56H243.905V68.56H242.905V69.56ZM242.905 99V100H243.905V99H242.905ZM153.305 99H152.305V100H153.305V99ZM153.305 2.99999V1.99999H152.305V2.99999H153.305ZM185.329 2.99999V84.408H187.329V2.99999H185.329ZM187.036 83.7009L172.188 68.8529L170.774 70.2671L185.622 85.1151L187.036 83.7009ZM171.481 70.56H242.905V68.56H171.481V70.56ZM241.905 69.56V99H243.905V69.56H241.905ZM242.905 98H153.305V100H242.905V98ZM154.305 99V2.99999H152.305V99H154.305ZM153.305 3.99999H186.329V1.99999H153.305V3.99999ZM276.089 82.872H275.089V83.872H276.089V82.872ZM276.089 56.632V55.632H275.089V56.632H276.089ZM341.497 56.632H342.497V55.632H341.497V56.632ZM341.497 82.872V83.872H342.497V82.872H341.497ZM331.385 2.99999L332.301 2.59828L332.038 1.99999H331.385V2.99999ZM373.497 99V100H375.028L374.413 98.5983L373.497 99ZM338.297 99L337.371 99.3772L337.625 100H338.297V99ZM305.145 17.592V16.592H303.658L304.219 17.9692L305.145 17.592ZM313.593 17.592L314.519 17.9692L315.08 16.592H313.593V17.592ZM280.441 99V100H281.113L281.367 99.3772L280.441 99ZM245.241 99L244.325 98.5983L243.71 100H245.241V99ZM287.353 2.99999V1.99999H286.7L286.437 2.59828L287.353 2.99999ZM277.089 82.872V56.632H275.089V82.872H277.089ZM276.089 57.632H341.497V55.632H276.089V57.632ZM340.497 56.632V82.872H342.497V56.632H340.497ZM341.497 81.872H276.089V83.872H341.497V81.872ZM330.469 3.40171L372.581 99.4017L374.413 98.5983L332.301 2.59828L330.469 3.40171ZM373.497 98H338.297V100H373.497V98ZM339.223 98.6228L306.071 17.2148L304.219 17.9692L337.371 99.3772L339.223 98.6228ZM305.145 18.592H313.593V16.592H305.145V18.592ZM312.667 17.2148L279.515 98.6228L281.367 99.3772L314.519 17.9692L312.667 17.2148ZM280.441 98H245.241V100H280.441V98ZM246.157 99.4017L288.269 3.40171L286.437 2.59828L244.325 98.5983L246.157 99.4017ZM287.353 3.99999H331.385V1.99999H287.353V3.99999ZM469.765 74.936L470.001 75.9078L471.367 75.5761L470.606 74.3945L469.765 74.936ZM460.805 77.112H459.805V78.3839L461.041 78.0838L460.805 77.112ZM460.805 2.99999V1.99999H459.805V2.99999H460.805ZM492.805 2.99999H493.805V1.99999H492.805V2.99999ZM492.805 99V100H493.805V99H492.805ZM451.461 99L450.62 99.5412L450.915 100H451.461V99ZM403.845 25.016L403.609 24.0442L402.244 24.3758L403.004 25.5572L403.845 25.016ZM412.805 22.84H413.805V21.5681L412.569 21.8682L412.805 22.84ZM412.805 99V100H413.805V99H412.805ZM380.805 99H379.805V100H380.805V99ZM380.805 2.99999V1.99999H379.805V2.99999H380.805ZM423.429 2.99999L424.27 2.45848L423.974 1.99999H423.429V2.99999ZM469.529 73.9642L460.569 76.1402L461.041 78.0838L470.001 75.9078L469.529 73.9642ZM461.805 77.112V2.99999H459.805V77.112H461.805ZM460.805 3.99999H492.805V1.99999H460.805V3.99999ZM491.805 2.99999V99H493.805V2.99999H491.805ZM492.805 98H451.461V100H492.805V98ZM452.302 98.4588L404.686 24.4748L403.004 25.5572L450.62 99.5412L452.302 98.4588ZM404.081 25.9878L413.041 23.8117L412.569 21.8682L403.609 24.0442L404.081 25.9878ZM411.805 22.84V99H413.805V22.84H411.805ZM412.805 98H380.805V100H412.805V98ZM381.805 99V2.99999H379.805V99H381.805ZM380.805 3.99999H423.429V1.99999H380.805V3.99999ZM422.588 3.54151L468.924 75.4775L470.606 74.3945L424.27 2.45848L422.588 3.54151ZM597.14 74.936L597.376 75.9078L598.742 75.5761L597.981 74.3945L597.14 74.936ZM588.18 77.112H587.18V78.3839L588.416 78.0838L588.18 77.112ZM588.18 2.99999V1.99999H587.18V2.99999H588.18ZM620.18 2.99999H621.18V1.99999H620.18V2.99999ZM620.18 99V100H621.18V99H620.18ZM578.836 99L577.995 99.5412L578.29 100H578.836V99ZM531.22 25.016L530.984 24.0442L529.619 24.3758L530.379 25.5572L531.22 25.016ZM540.18 22.84H541.18V21.5681L539.944 21.8682L540.18 22.84ZM540.18 99V100H541.18V99H540.18ZM508.18 99H507.18V100H508.18V99ZM508.18 2.99999V1.99999H507.18V2.99999H508.18ZM550.804 2.99999L551.645 2.45848L551.349 1.99999H550.804V2.99999ZM596.904 73.9642L587.944 76.1402L588.416 78.0838L597.376 75.9078L596.904 73.9642ZM589.18 77.112V2.99999H587.18V77.112H589.18ZM588.18 3.99999H620.18V1.99999H588.18V3.99999ZM619.18 2.99999V99H621.18V2.99999H619.18ZM620.18 98H578.836V100H620.18V98ZM579.677 98.4588L532.061 24.4748L530.379 25.5572L577.995 99.5412L579.677 98.4588ZM531.456 25.9878L540.416 23.8117L539.944 21.8682L530.984 24.0442L531.456 25.9878ZM539.18 22.84V99H541.18V22.84H539.18ZM540.18 98H508.18V100H540.18V98ZM509.18 99V2.99999H507.18V99H509.18ZM508.18 3.99999H550.804V1.99999H508.18V3.99999ZM549.963 3.54151L596.299 75.4775L597.981 74.3945L551.645 2.45848L549.963 3.54151ZM635.555 2.99999V1.99999H634.555V2.99999H635.555ZM668.579 2.99999H669.579V1.99999H668.579V2.99999ZM668.579 99V100H669.579V99H668.579ZM635.555 99H634.555V100H635.555V99ZM635.555 3.99999H668.579V1.99999H635.555V3.99999ZM667.579 2.99999V99H669.579V2.99999H667.579ZM668.579 98H635.555V100H668.579V98ZM636.555 99V2.99999H634.555V99H636.555ZM772.89 74.936L773.126 75.9078L774.492 75.5761L773.731 74.3945L772.89 74.936ZM763.93 77.112H762.93V78.3839L764.166 78.0838L763.93 77.112ZM763.93 2.99999V1.99999H762.93V2.99999H763.93ZM795.93 2.99999H796.93V1.99999H795.93V2.99999ZM795.93 99V100H796.93V99H795.93ZM754.586 99L753.745 99.5412L754.04 100H754.586V99ZM706.97 25.016L706.734 24.0442L705.369 24.3758L706.129 25.5572L706.97 25.016ZM715.93 22.84H716.93V21.5681L715.694 21.8682L715.93 22.84ZM715.93 99V100H716.93V99H715.93ZM683.93 99H682.93V100H683.93V99ZM683.93 2.99999V1.99999H682.93V2.99999H683.93ZM726.554 2.99999L727.395 2.45848L727.099 1.99999H726.554V2.99999ZM772.654 73.9642L763.694 76.1402L764.166 78.0838L773.126 75.9078L772.654 73.9642ZM764.93 77.112V2.99999H762.93V77.112H764.93ZM763.93 3.99999H795.93V1.99999H763.93V3.99999ZM794.93 2.99999V99H796.93V2.99999H794.93ZM795.93 98H754.586V100H795.93V98ZM755.427 98.4588L707.811 24.4748L706.129 25.5572L753.745 99.5412L755.427 98.4588ZM707.206 25.9878L716.166 23.8117L715.694 21.8682L706.734 24.0442L707.206 25.9878ZM714.93 22.84V99H716.93V22.84H714.93ZM715.93 98H683.93V100H715.93V98ZM684.93 99V2.99999H682.93V99H684.93ZM683.93 3.99999H726.554V1.99999H683.93V3.99999ZM725.713 3.54151L772.049 75.4775L773.731 74.3945L727.395 2.45848L725.713 3.54151ZM911.145 57.528L912.143 57.5885L912.207 56.528H911.145V57.528ZM907.561 73.912L906.628 73.551L906.625 73.5592L907.561 73.912ZM898.729 87.992L898 87.3076L897.999 87.3081L898.729 87.992ZM841.641 98.104L841.332 99.0551L841.336 99.0563L841.641 98.104ZM824.105 88.632L823.458 89.3949L823.465 89.4008L823.472 89.4065L824.105 88.632ZM812.201 72.888L811.292 73.3055L811.294 73.3102L812.201 72.888ZM812.201 29.24L813.107 29.6622L813.11 29.6575L812.201 29.24ZM824.361 13.496L824.987 14.2757L824.995 14.2694L824.361 13.496ZM842.409 3.896L842.111 2.94152L842.409 3.896ZM892.969 5.688L892.579 6.60876L892.591 6.6137L892.969 5.688ZM912.041 19.128L911.274 19.7693L911.279 19.776L912.041 19.128ZM921.641 38.968V39.968H922.866L922.621 38.7676L921.641 38.968ZM888.489 38.968L887.537 39.274L887.76 39.968H888.489V38.968ZM883.881 32.952L883.271 33.7446L883.288 33.7576L883.305 33.7698L883.881 32.952ZM875.689 29.112L875.411 30.0726L875.423 30.076L875.435 30.0791L875.689 29.112ZM852.009 30.264L852.421 31.1751L852.43 31.1711L852.439 31.1669L852.009 30.264ZM843.689 37.816L842.822 37.3175L842.817 37.3258L842.813 37.3341L843.689 37.816ZM844.073 64.568L843.214 65.0795L843.218 65.087L843.223 65.0944L844.073 64.568ZM853.417 72.504L853.025 73.4242L853.032 73.4271L853.417 72.504ZM882.217 73.272L882.492 74.2335L882.501 74.2309L882.51 74.2282L882.217 73.272ZM892.329 67.512L891.622 66.8049L892.329 67.512ZM897.193 57.528V56.528H896.331L896.204 57.3807L897.193 57.528ZM869.929 66.36H868.929V67.36H869.929V66.36ZM869.929 47.672V46.672H868.929V47.672H869.929ZM922.409 47.672H923.409V46.672H922.409V47.672ZM922.409 99V100H923.409V99H922.409ZM899.497 99L898.506 99.1313L898.621 100H899.497V99ZM894.633 62.264L895.213 61.449L893.34 60.1175L893.642 62.3953L894.633 62.264ZM900.393 66.36V67.36H903.525L900.973 65.545L900.393 66.36ZM910.147 57.4675C909.812 62.996 908.639 68.356 906.628 73.551L908.494 74.273C910.579 68.8867 911.796 63.324 912.143 57.5885L910.147 57.4675ZM906.625 73.5592C904.711 78.6376 901.838 83.2191 898 87.3076L899.458 88.6764C903.471 84.4023 906.486 79.597 908.497 74.2648L906.625 73.5592ZM897.999 87.3081C894.273 91.2828 889.495 94.4486 883.638 96.7915L884.38 98.6485C890.47 96.2127 895.505 92.8932 899.459 88.6759L897.999 87.3081ZM883.638 96.7915C877.81 99.1226 870.859 100.304 862.761 100.304V102.304C871.047 102.304 878.262 101.096 884.38 98.6485L883.638 96.7915ZM862.761 100.304C855.434 100.304 848.498 99.2515 841.946 97.1517L841.336 99.0563C848.096 101.223 855.24 102.304 862.761 102.304V100.304ZM841.95 97.1529C835.492 95.0561 829.757 91.9569 824.738 87.8575L823.472 89.4065C828.693 93.6698 834.649 96.8853 841.332 99.0551L841.95 97.1529ZM824.752 87.8691C819.832 83.6998 815.95 78.5697 813.107 72.4658L811.294 73.3102C814.254 79.665 818.309 85.0309 823.458 89.3949L824.752 87.8691ZM813.11 72.4705C810.279 66.3094 808.849 59.1604 808.849 51H806.849C806.849 59.3943 808.32 66.8372 811.292 73.3055L813.11 72.4705ZM808.849 51C808.849 42.8392 810.279 35.7351 813.107 29.6622L811.294 28.8178C808.32 35.2036 806.849 42.6061 806.849 51H808.849ZM813.11 29.6575C815.949 23.4779 819.908 18.3558 824.987 14.2756L823.735 12.7164C818.403 16.9989 814.256 22.3728 811.292 28.8225L813.11 29.6575ZM824.995 14.2694C830.095 10.0891 835.995 6.94796 842.707 4.85048L842.111 2.94152C835.169 5.11069 829.038 8.36959 823.727 12.7226L824.995 14.2694ZM842.707 4.85048C849.427 2.75042 856.707 1.696 864.553 1.696V-0.304001C856.527 -0.304001 849.044 0.774906 842.111 2.94152L842.707 4.85048ZM864.553 1.696C875.551 1.696 884.883 3.34621 892.579 6.60869L893.359 4.76731C885.354 1.37378 875.742 -0.304001 864.553 -0.304001V1.696ZM892.591 6.6137C900.399 9.80404 906.614 14.1947 911.274 19.7693L912.808 18.4867C907.91 12.6266 901.411 8.05728 893.347 4.76229L892.591 6.6137ZM911.279 19.776C916.032 25.3621 919.158 31.8206 920.661 39.1684L922.621 38.7676C921.052 31.0967 917.778 24.3286 912.803 18.48L911.279 19.776ZM921.641 37.968H888.489V39.968H921.641V37.968ZM889.441 38.662C888.598 36.0405 886.915 33.8645 884.456 32.1342L883.305 33.7698C885.455 35.2821 886.844 37.1168 887.537 39.274L889.441 38.662ZM884.491 32.1594C882.148 30.3571 879.29 29.0256 875.943 28.1449L875.435 30.0791C878.573 30.9051 881.177 32.1336 883.271 33.7446L884.491 32.1594ZM875.967 28.1514C872.619 27.1822 868.897 26.704 864.809 26.704V28.704C868.743 28.704 872.274 29.1644 875.411 30.0726L875.967 28.1514ZM864.809 26.704C859.747 26.704 855.326 27.5767 851.579 29.3611L852.439 31.1669C855.86 29.5379 859.973 28.704 864.809 28.704V26.704ZM851.597 29.3529C847.822 31.0608 844.889 33.7225 842.822 37.3175L844.556 38.3145C846.414 35.0828 849.028 32.7099 852.421 31.1751L851.597 29.3529ZM842.813 37.3341C840.829 40.9405 839.873 45.5164 839.873 51H841.873C841.873 45.7316 842.794 41.5181 844.565 38.2979L842.813 37.3341ZM839.873 51C839.873 56.587 840.964 61.2999 843.214 65.0795L844.932 64.0565C842.915 60.6681 841.873 56.3356 841.873 51H839.873ZM843.223 65.0944C845.554 68.8601 848.832 71.6396 853.025 73.4242L853.809 71.5838C849.981 69.955 847.029 67.4439 844.923 64.0416L843.223 65.0944ZM853.032 73.4271C857.277 75.1955 862.234 76.064 867.881 76.064V74.064C862.434 74.064 857.749 73.2258 853.802 71.5809L853.032 73.4271ZM867.881 76.064C873.329 76.064 878.203 75.4589 882.492 74.2335L881.942 72.3105C877.868 73.4744 873.185 74.064 867.881 74.064V76.064ZM882.51 74.2282C886.815 72.9102 890.339 70.9165 893.036 68.2191L891.622 66.8049C889.199 69.2275 885.981 71.0738 881.924 72.3158L882.51 74.2282ZM893.036 68.2191C895.846 65.4093 897.556 61.8792 898.182 57.6753L896.204 57.3807C895.635 61.1982 894.103 64.324 891.622 66.8049L893.036 68.2191ZM897.193 58.528H911.145V56.528H897.193V58.528ZM870.929 66.36V47.672H868.929V66.36H870.929ZM869.929 48.672H922.409V46.672H869.929V48.672ZM921.409 47.672V99H923.409V47.672H921.409ZM922.409 98H899.497V100H922.409V98ZM900.488 98.8687L895.624 62.1327L893.642 62.3953L898.506 99.1313L900.488 98.8687ZM894.053 63.079L899.813 67.1749L900.973 65.545L895.213 61.449L894.053 63.079ZM900.393 65.36H869.929V67.36H900.393V65.36ZM72.562 208.408L71.6449 208.009L70.9587 209.588L72.6698 209.402L72.562 208.408ZM75.122 202.52L75.1573 201.521L74.4765 201.497L74.2049 202.121L75.122 202.52ZM104.178 214.552L103.34 215.098L103.347 215.109L103.355 215.12L104.178 214.552ZM104.306 241.56L103.438 241.064L103.434 241.071L103.43 241.077L104.306 241.56ZM0.369999 255L-0.619217 254.854L-0.788952 256H0.369999V255ZM7.666 205.72L8.65522 205.866L8.67749 205.716L8.65403 205.566L7.666 205.72ZM0.369999 159V158H-0.798283L-0.618023 159.154L0.369999 159ZM93.938 165.272L93.2991 166.041L93.3069 166.048L93.938 165.272ZM98.674 194.2L97.7838 193.745L98.674 194.2ZM89.458 203.544L89.9673 204.405L89.9725 204.401L89.458 203.544ZM32.626 247.832L31.8649 248.481L33.28 250.141L33.6142 247.985L32.626 247.832ZM20.082 233.112V232.112H17.916L19.3209 233.761L20.082 233.112ZM71.922 230.936L72.5888 231.681L72.5994 231.672L72.6097 231.662L71.922 230.936ZM71.922 218.904L71.1961 219.592L71.2053 219.602L71.2149 219.611L71.922 218.904ZM27.122 216.472H26.122V217.472H27.122V216.472ZM27.122 194.968V193.968H26.122V194.968H27.122ZM65.65 192.92L64.9856 192.173L64.975 192.182L64.9646 192.192L65.65 192.92ZM65.906 182.808L65.2221 183.538L65.906 182.808ZM20.21 180.888L19.4456 180.243L18.0583 181.888H20.21V180.888ZM32.626 166.168L33.6127 166.005L33.2596 163.866L31.8616 165.523L32.626 166.168ZM39.154 205.72L40.1422 205.873L40.1667 205.715L40.1407 205.557L39.154 205.72ZM73.4791 208.807L76.0391 202.919L74.2049 202.121L71.6449 208.009L73.4791 208.807ZM75.0867 203.519C82.2611 203.773 88.1912 204.911 92.9099 206.898L93.6861 205.054C88.6768 202.945 82.4896 201.779 75.1573 201.521L75.0867 203.519ZM92.9099 206.898C97.6281 208.884 101.08 211.628 103.34 215.098L105.016 214.006C102.497 210.138 98.6959 207.164 93.6861 205.054L92.9099 206.898ZM103.355 215.12C105.697 218.512 106.89 222.616 106.89 227.48H108.89C108.89 222.275 107.608 217.76 105.001 213.984L103.355 215.12ZM106.89 227.48C106.89 232.526 105.734 237.046 103.438 241.064L105.174 242.056C107.657 237.712 108.89 232.845 108.89 227.48H106.89ZM103.43 241.077C101.235 245.06 97.8546 248.212 93.2348 250.522L94.1292 252.31C99.0667 249.842 102.769 246.422 105.182 242.043L103.43 241.077ZM93.2348 250.522C88.6341 252.822 82.8254 254 75.762 254V256C83.0347 256 89.1726 254.789 94.1292 252.31L93.2348 250.522ZM75.762 254H0.369999V256H75.762V254ZM1.35922 255.146L8.65522 205.866L6.67678 205.574L-0.619217 254.854L1.35922 255.146ZM8.65403 205.566L1.35802 158.846L-0.618023 159.154L6.67797 205.874L8.65403 205.566ZM0.369999 160H73.074V158H0.369999V160ZM73.074 160C81.7984 160 88.4989 162.055 93.2991 166.041L94.5769 164.503C89.3078 160.127 82.099 158 73.074 158V160ZM93.3069 166.048C98.0758 169.927 100.49 175.342 100.49 182.424H102.49C102.49 174.829 99.8696 168.809 94.5691 164.496L93.3069 166.048ZM100.49 182.424C100.49 186.449 99.5879 190.218 97.7838 193.745L99.5643 194.655C101.515 190.843 102.49 186.761 102.49 182.424H100.49ZM97.7838 193.745C96.0078 197.216 93.0832 200.203 88.9435 202.687L89.9725 204.401C94.3661 201.765 97.5856 198.523 99.5643 194.655L97.7838 193.745ZM88.9487 202.683C84.9336 205.06 79.4557 206.655 72.4542 207.414L72.6698 209.402C79.8336 208.625 85.6197 206.978 89.9673 204.405L88.9487 202.683ZM33.3871 247.183L20.8431 232.463L19.3209 233.761L31.8649 248.481L33.3871 247.183ZM20.082 234.112H65.266V232.112H20.082V234.112ZM65.266 234.112C68.2537 234.112 70.7354 233.34 72.5888 231.681L71.2552 230.191C69.866 231.434 67.9103 232.112 65.266 232.112V234.112ZM72.6097 231.662C74.4602 229.909 75.354 227.583 75.354 224.792H73.354C73.354 227.121 72.6264 228.891 71.2343 230.21L72.6097 231.662ZM75.354 224.792C75.354 222.224 74.439 220.007 72.6291 218.197L71.2149 219.611C72.6477 221.044 73.354 222.752 73.354 224.792H75.354ZM72.648 218.216C70.8607 216.33 68.2504 215.472 65.01 215.472V217.472C67.9136 217.472 69.9113 218.236 71.1961 219.592L72.648 218.216ZM65.01 215.472H27.122V217.472H65.01V215.472ZM28.122 216.472V194.968H26.122V216.472H28.122ZM27.122 195.968H60.146V193.968H27.122V195.968ZM60.146 195.968C62.588 195.968 64.6775 195.209 66.3354 193.648L64.9646 192.192C63.7212 193.362 62.1414 193.968 60.146 193.968V195.968ZM66.3144 193.667C68.0729 192.104 68.954 190.079 68.954 187.672H66.954C66.954 189.532 66.2991 191.005 64.9856 192.173L66.3144 193.667ZM68.954 187.672C68.954 185.448 68.1677 183.558 66.59 182.078L65.2221 183.538C66.375 184.618 66.954 185.971 66.954 187.672H68.954ZM66.59 182.078C64.9859 180.575 62.7907 179.888 60.146 179.888V181.888C62.4506 181.888 64.0954 182.481 65.2221 183.538L66.59 182.078ZM60.146 179.888H20.21V181.888H60.146V179.888ZM20.9744 181.533L33.3904 166.813L31.8616 165.523L19.4456 180.243L20.9744 181.533ZM31.6394 166.331L38.1674 205.883L40.1407 205.557L33.6127 166.005L31.6394 166.331ZM38.1658 205.567L31.6378 247.679L33.6142 247.985L40.1422 205.873L38.1658 205.567ZM142.494 251.032L142.061 251.933L142.064 251.935L142.494 251.032ZM122.142 233.496L121.3 234.035L121.303 234.04L122.142 233.496ZM122.142 180.632L122.981 181.176L122.984 181.171L122.142 180.632ZM142.494 162.968L142.064 162.065L142.061 162.067L142.494 162.968ZM203.806 162.968L203.373 163.869L203.376 163.871L203.806 162.968ZM224.286 180.632L223.444 181.171L223.447 181.176L224.286 180.632ZM224.286 233.496L225.125 234.04L225.128 234.035L224.286 233.496ZM203.806 251.032L203.376 250.129L203.373 250.131L203.806 251.032ZM186.654 225.432L187.05 226.35L187.059 226.346L187.068 226.342L186.654 225.432ZM195.23 218.264L194.391 217.72L194.387 217.726L195.23 218.264ZM195.23 195.864L194.381 196.392L194.389 196.405L194.398 196.419L195.23 195.864ZM186.654 188.696L186.24 189.606L186.249 189.61L186.258 189.614L186.654 188.696ZM159.774 188.696L160.17 189.614L160.179 189.61L160.188 189.606L159.774 188.696ZM151.07 195.864L150.231 195.32L150.227 195.326L151.07 195.864ZM151.07 218.264L150.221 218.792L150.229 218.805L150.238 218.819L151.07 218.264ZM159.774 225.432L159.36 226.342L159.369 226.346L159.378 226.35L159.774 225.432ZM173.214 256.304C161.642 256.304 151.554 254.235 142.924 250.129L142.064 251.935C151.012 256.192 161.404 258.304 173.214 258.304V256.304ZM142.927 250.131C134.375 246.022 127.737 240.295 122.981 232.952L121.303 234.04C126.275 241.716 133.205 247.679 142.061 251.933L142.927 250.131ZM122.984 232.957C118.235 225.541 115.846 216.901 115.846 207H113.846C113.846 217.238 116.321 226.261 121.3 234.035L122.984 232.957ZM115.846 207C115.846 197.099 118.235 188.503 122.981 181.176L121.303 180.088C116.321 187.779 113.846 196.763 113.846 207H115.846ZM122.984 181.171C127.741 173.744 134.378 167.976 142.927 163.869L142.061 162.067C133.202 166.322 126.271 172.331 121.3 180.093L122.984 181.171ZM142.924 163.871C151.554 159.765 161.642 157.696 173.214 157.696V155.696C161.404 155.696 151.012 157.808 142.064 162.065L142.924 163.871ZM173.214 157.696C184.786 157.696 194.83 159.765 203.373 163.869L204.239 162.067C195.374 157.808 185.023 155.696 173.214 155.696V157.696ZM203.376 163.871C212.011 167.979 218.689 173.747 223.444 181.171L225.128 180.093C220.155 172.328 213.18 166.32 204.236 162.065L203.376 163.871ZM223.447 181.176C228.193 188.503 230.582 197.099 230.582 207H232.582C232.582 196.763 230.107 187.779 225.125 180.088L223.447 181.176ZM230.582 207C230.582 216.901 228.193 225.541 223.444 232.957L225.128 234.035C230.107 226.261 232.582 217.238 232.582 207H230.582ZM223.447 232.952C218.692 240.293 212.014 246.02 203.376 250.129L204.236 251.935C213.177 247.681 220.152 241.718 225.125 234.04L223.447 232.952ZM203.373 250.131C194.83 254.235 184.786 256.304 173.214 256.304V258.304C185.023 258.304 195.374 256.192 204.239 251.933L203.373 250.131ZM173.214 228.864C178.52 228.864 183.141 228.038 187.05 226.35L186.258 224.514C182.657 226.069 178.319 226.864 173.214 226.864V228.864ZM187.068 226.342C190.975 224.567 193.993 222.058 196.073 218.802L194.387 217.726C192.542 220.614 189.843 222.884 186.24 224.522L187.068 226.342ZM196.069 218.808C198.238 215.465 199.302 211.514 199.302 207H197.302C197.302 211.19 196.318 214.749 194.391 217.72L196.069 218.808ZM199.302 207C199.302 202.487 198.238 198.573 196.062 195.309L194.398 196.419C196.318 199.299 197.302 202.809 197.302 207H199.302ZM196.079 195.336C193.998 191.988 190.973 189.472 187.05 187.778L186.258 189.614C189.845 191.163 192.536 193.425 194.381 196.392L196.079 195.336ZM187.068 187.786C183.154 186.007 178.526 185.136 173.214 185.136V187.136C178.313 187.136 182.645 187.972 186.24 189.606L187.068 187.786ZM173.214 185.136C167.902 185.136 163.274 186.007 159.36 187.786L160.188 189.606C163.783 187.972 168.115 187.136 173.214 187.136V185.136ZM159.378 187.778C155.458 189.47 152.396 191.983 150.231 195.32L151.909 196.408C153.84 193.431 156.581 191.164 160.17 189.614L159.378 187.778ZM150.227 195.326C148.143 198.587 147.126 202.495 147.126 207H149.126C149.126 202.801 150.071 199.285 151.913 196.402L150.227 195.326ZM147.126 207C147.126 211.506 148.144 215.451 150.221 218.792L151.919 217.736C150.071 214.763 149.126 211.198 149.126 207H147.126ZM150.238 218.819C152.401 222.064 155.456 224.568 159.36 226.342L160.188 224.522C156.583 222.883 153.835 220.608 151.902 217.709L150.238 218.819ZM159.378 226.35C163.287 228.038 167.908 228.864 173.214 228.864V226.864C168.109 226.864 163.771 226.069 160.17 224.514L159.378 226.35ZM267.369 251.032L266.936 251.933L266.939 251.935L267.369 251.032ZM247.017 233.496L246.175 234.035L246.178 234.04L247.017 233.496ZM247.017 180.632L247.856 181.176L247.859 181.171L247.017 180.632ZM267.369 162.968L266.939 162.065L266.936 162.067L267.369 162.968ZM328.681 162.968L328.248 163.869L328.251 163.871L328.681 162.968ZM349.161 180.632L348.319 181.171L348.322 181.176L349.161 180.632ZM349.161 233.496L350 234.04L350.003 234.035L349.161 233.496ZM328.681 251.032L328.251 250.129L328.248 250.131L328.681 251.032ZM311.529 225.432L311.925 226.35L311.934 226.346L311.943 226.342L311.529 225.432ZM320.105 218.264L319.266 217.72L319.262 217.726L320.105 218.264ZM320.105 195.864L319.256 196.392L319.264 196.405L319.273 196.419L320.105 195.864ZM311.529 188.696L311.115 189.606L311.124 189.61L311.133 189.614L311.529 188.696ZM284.649 188.696L285.045 189.614L285.054 189.61L285.063 189.606L284.649 188.696ZM275.945 195.864L275.106 195.32L275.102 195.326L275.945 195.864ZM275.945 218.264L275.096 218.792L275.104 218.805L275.113 218.819L275.945 218.264ZM284.649 225.432L284.235 226.342L284.244 226.346L284.253 226.35L284.649 225.432ZM298.089 256.304C286.517 256.304 276.429 254.235 267.799 250.129L266.939 251.935C275.887 256.192 286.279 258.304 298.089 258.304V256.304ZM267.802 250.131C259.25 246.022 252.612 240.295 247.856 232.952L246.178 234.04C251.15 241.716 258.08 247.679 266.936 251.933L267.802 250.131ZM247.859 232.957C243.11 225.541 240.721 216.901 240.721 207H238.721C238.721 217.238 241.196 226.261 246.175 234.035L247.859 232.957ZM240.721 207C240.721 197.099 243.11 188.503 247.856 181.176L246.178 180.088C241.196 187.779 238.721 196.763 238.721 207H240.721ZM247.859 181.171C252.616 173.744 259.253 167.976 267.802 163.869L266.936 162.067C258.077 166.322 251.146 172.331 246.175 180.093L247.859 181.171ZM267.799 163.871C276.429 159.765 286.517 157.696 298.089 157.696V155.696C286.279 155.696 275.887 157.808 266.939 162.065L267.799 163.871ZM298.089 157.696C309.661 157.696 319.705 159.765 328.248 163.869L329.114 162.067C320.249 157.808 309.898 155.696 298.089 155.696V157.696ZM328.251 163.871C336.886 167.979 343.564 173.747 348.319 181.171L350.003 180.093C345.03 172.328 338.055 166.32 329.111 162.065L328.251 163.871ZM348.322 181.176C353.068 188.503 355.457 197.099 355.457 207H357.457C357.457 196.763 354.982 187.779 350 180.088L348.322 181.176ZM355.457 207C355.457 216.901 353.068 225.541 348.319 232.957L350.003 234.035C354.982 226.261 357.457 217.238 357.457 207H355.457ZM348.322 232.952C343.567 240.293 336.889 246.02 328.251 250.129L329.111 251.935C338.052 247.681 345.027 241.718 350 234.04L348.322 232.952ZM328.248 250.131C319.705 254.235 309.661 256.304 298.089 256.304V258.304C309.898 258.304 320.249 256.192 329.114 251.933L328.248 250.131ZM298.089 228.864C303.395 228.864 308.016 228.038 311.925 226.35L311.133 224.514C307.532 226.069 303.194 226.864 298.089 226.864V228.864ZM311.943 226.342C315.85 224.567 318.868 222.058 320.948 218.802L319.262 217.726C317.417 220.614 314.718 222.884 311.115 224.522L311.943 226.342ZM320.944 218.808C323.113 215.465 324.177 211.514 324.177 207H322.177C322.177 211.19 321.193 214.749 319.266 217.72L320.944 218.808ZM324.177 207C324.177 202.487 323.113 198.573 320.937 195.309L319.273 196.419C321.193 199.299 322.177 202.809 322.177 207H324.177ZM320.954 195.336C318.873 191.988 315.848 189.472 311.925 187.778L311.133 189.614C314.72 191.163 317.411 193.425 319.256 196.392L320.954 195.336ZM311.943 187.786C308.029 186.007 303.401 185.136 298.089 185.136V187.136C303.188 187.136 307.52 187.972 311.115 189.606L311.943 187.786ZM298.089 185.136C292.777 185.136 288.149 186.007 284.235 187.786L285.063 189.606C288.658 187.972 292.99 187.136 298.089 187.136V185.136ZM284.253 187.778C280.333 189.47 277.271 191.983 275.106 195.32L276.784 196.408C278.715 193.431 281.456 191.164 285.045 189.614L284.253 187.778ZM275.102 195.326C273.018 198.587 272.001 202.495 272.001 207H274.001C274.001 202.801 274.946 199.285 276.788 196.402L275.102 195.326ZM272.001 207C272.001 211.506 273.019 215.451 275.096 218.792L276.794 217.736C274.946 214.763 274.001 211.198 274.001 207H272.001ZM275.113 218.819C277.276 222.064 280.331 224.568 284.235 226.342L285.063 224.522C281.458 222.883 278.71 220.608 276.777 217.709L275.113 218.819ZM284.253 226.35C288.162 228.038 292.783 228.864 298.089 228.864V226.864C292.984 226.864 288.646 226.069 285.045 224.514L284.253 226.35ZM394.498 173.208V172.208H393.498V173.208H394.498ZM427.522 173.208H428.522V172.208H427.522V173.208ZM427.522 255V256H428.522V255H427.522ZM394.498 255H393.498V256H394.498V255ZM359.938 159V158H358.938V159H359.938ZM462.082 159H463.082V158H462.082V159ZM462.082 188.44V189.44H463.082V188.44H462.082ZM359.938 188.44H358.938V189.44H359.938V188.44ZM394.498 174.208H427.522V172.208H394.498V174.208ZM426.522 173.208V255H428.522V173.208H426.522ZM427.522 254H394.498V256H427.522V254ZM395.498 255V173.208H393.498V255H395.498ZM359.938 160H462.082V158H359.938V160ZM461.082 159V188.44H463.082V159H461.082ZM462.082 187.44H359.938V189.44H462.082V187.44ZM360.938 188.44V159H358.938V188.44H360.938ZM579.516 213.4L580.509 213.516L580.639 212.4H579.516V213.4ZM570.428 236.44L569.634 235.832L569.629 235.838L570.428 236.44ZM550.716 251.8L551.125 252.713L550.716 251.8ZM492.604 251.032L492.164 251.93L492.604 251.032ZM472.636 233.496L471.785 234.022L471.792 234.033L472.636 233.496ZM472.636 180.632L471.79 180.099L471.788 180.102L472.636 180.632ZM492.604 162.968L492.164 162.07L492.604 162.968ZM570.428 177.56L569.629 178.162L569.634 178.168L570.428 177.56ZM579.516 200.6V201.6H580.639L580.509 200.484L579.516 200.6ZM546.364 200.6L545.39 200.825L545.568 201.6H546.364V200.6ZM542.14 192.152L541.381 192.803L541.387 192.81L541.393 192.816L542.14 192.152ZM534.076 186.776L533.709 187.706L533.723 187.712L533.738 187.717L534.076 186.776ZM509.756 187.544L510.194 188.443L510.203 188.438L509.756 187.544ZM501.692 195.096L500.821 194.605L501.692 195.096ZM501.692 218.904L500.821 219.395L500.827 219.405L501.692 218.904ZM509.756 226.456L509.3 227.346L509.309 227.35L509.756 226.456ZM534.076 227.48L534.4 228.426L534.407 228.424L534.414 228.421L534.076 227.48ZM542.14 222.232L542.887 222.896L542.893 222.89L542.899 222.883L542.14 222.232ZM546.364 213.4V212.4H545.56L545.387 213.186L546.364 213.4ZM578.523 213.284C577.518 221.907 574.552 229.414 569.634 235.832L571.222 237.048C576.374 230.324 579.466 222.471 580.509 213.516L578.523 213.284ZM569.629 235.838C564.791 242.262 558.359 247.281 550.307 250.887L551.125 252.713C559.457 248.981 566.167 243.759 571.227 237.042L569.629 235.838ZM550.307 250.887C542.265 254.49 533.021 256.304 522.556 256.304V258.304C533.253 258.304 542.783 256.449 551.125 252.713L550.307 250.887ZM522.556 256.304C511.243 256.304 501.415 254.236 493.044 250.134L492.164 251.93C500.859 256.191 510.999 258.304 522.556 258.304V256.304ZM493.044 250.134C484.664 246.028 478.153 240.303 473.48 232.959L471.792 234.033C476.677 241.708 483.477 247.673 492.164 251.93L493.044 250.134ZM473.487 232.97C468.903 225.553 466.596 216.908 466.596 207H464.596C464.596 217.231 466.982 226.25 471.785 234.022L473.487 232.97ZM466.596 207C466.596 197.092 468.903 188.491 473.484 181.162L471.788 180.102C466.982 187.791 464.596 196.77 464.596 207H466.596ZM473.482 181.165C478.156 173.736 484.667 167.971 493.044 163.866L492.164 162.07C483.474 166.328 476.673 172.338 471.79 180.099L473.482 181.165ZM493.044 163.866C501.415 159.764 511.243 157.696 522.556 157.696V155.696C510.999 155.696 500.859 157.809 492.164 162.07L493.044 163.866ZM522.556 157.696C533.021 157.696 542.265 159.51 550.307 163.113L551.125 161.287C542.783 157.551 533.253 155.696 522.556 155.696V157.696ZM550.307 163.113C558.359 166.719 564.791 171.738 569.629 178.162L571.227 176.958C566.167 170.241 559.457 165.019 551.125 161.287L550.307 163.113ZM569.634 178.168C574.552 184.586 577.518 192.093 578.523 200.716L580.509 200.484C579.466 191.529 576.374 183.676 571.222 176.952L569.634 178.168ZM579.516 199.6H546.364V201.6H579.516V199.6ZM547.338 200.375C546.537 196.902 545.058 193.93 542.887 191.488L541.393 192.816C543.318 194.982 544.655 197.642 545.39 200.825L547.338 200.375ZM542.899 191.501C540.725 188.964 537.885 187.081 534.414 185.835L533.738 187.717C536.923 188.861 539.459 190.561 541.381 192.803L542.899 191.501ZM534.443 185.846C531.057 184.509 527.086 183.856 522.556 183.856V185.856C526.901 185.856 530.61 186.483 533.709 187.706L534.443 185.846ZM522.556 183.856C517.487 183.856 513.06 184.774 509.309 186.65L510.203 188.438C513.62 186.73 517.726 185.856 522.556 185.856V183.856ZM509.318 186.645C505.64 188.439 502.8 191.097 500.821 194.605L502.563 195.587C504.339 192.439 506.874 190.062 510.194 188.443L509.318 186.645ZM500.821 194.605C498.843 198.111 497.876 202.255 497.876 207H499.876C499.876 202.529 500.786 198.737 502.563 195.587L500.821 194.605ZM497.876 207C497.876 211.745 498.843 215.889 500.821 219.395L502.563 218.413C500.786 215.263 499.876 211.471 499.876 207H497.876ZM500.827 219.405C502.805 222.822 505.639 225.471 509.3 227.346L510.212 225.566C506.875 223.857 504.334 221.471 502.557 218.403L500.827 219.405ZM509.309 227.35C513.06 229.226 517.487 230.144 522.556 230.144V228.144C517.726 228.144 513.62 227.27 510.203 225.562L509.309 227.35ZM522.556 230.144C527.073 230.144 531.027 229.58 534.4 228.426L533.752 226.534C530.639 227.599 526.914 228.144 522.556 228.144V230.144ZM534.414 228.421C537.876 227.178 540.713 225.343 542.887 222.896L541.393 221.568C539.471 223.729 536.932 225.392 533.738 226.539L534.414 228.421ZM542.899 222.883C545.069 220.352 546.542 217.252 547.341 213.614L545.387 213.186C544.65 216.546 543.307 219.334 541.381 221.581L542.899 222.883ZM546.364 214.4H579.516V212.4H546.364V214.4ZM607.964 238.872H606.964V239.872H607.964V238.872ZM607.964 212.632V211.632H606.964V212.632H607.964ZM673.372 212.632H674.372V211.632H673.372V212.632ZM673.372 238.872V239.872H674.372V238.872H673.372ZM663.26 159L664.176 158.598L663.913 158H663.26V159ZM705.372 255V256H706.903L706.288 254.598L705.372 255ZM670.172 255L669.246 255.377L669.5 256H670.172V255ZM637.02 173.592V172.592H635.533L636.094 173.969L637.02 173.592ZM645.468 173.592L646.394 173.969L646.955 172.592H645.468V173.592ZM612.316 255V256H612.989L613.242 255.377L612.316 255ZM577.116 255L576.2 254.598L575.585 256H577.116V255ZM619.228 159V158H618.575L618.312 158.598L619.228 159ZM608.964 238.872V212.632H606.964V238.872H608.964ZM607.964 213.632H673.372V211.632H607.964V213.632ZM672.372 212.632V238.872H674.372V212.632H672.372ZM673.372 237.872H607.964V239.872H673.372V237.872ZM662.344 159.402L704.456 255.402L706.288 254.598L664.176 158.598L662.344 159.402ZM705.372 254H670.172V256H705.372V254ZM671.098 254.623L637.946 173.215L636.094 173.969L669.246 255.377L671.098 254.623ZM637.02 174.592H645.468V172.592H637.02V174.592ZM644.542 173.215L611.39 254.623L613.242 255.377L646.394 173.969L644.542 173.215ZM612.316 254H577.116V256H612.316V254ZM578.032 255.402L620.144 159.402L618.312 158.598L576.2 254.598L578.032 255.402ZM619.228 160H663.26V158H619.228V160ZM860.52 159H861.52V158H860.52V159ZM860.52 255V256H861.52V255H860.52ZM829.16 255H828.16V256H829.16V255ZM829.16 171.416L829.287 170.424L828.16 170.28V171.416H829.16ZM835.176 172.184L836.108 172.547L836.572 171.354L835.303 171.192L835.176 172.184ZM802.92 255V256H803.604L803.852 255.363L802.92 255ZM770.28 255L769.349 255.364L769.597 256H770.28V255ZM738.024 172.568L737.877 171.579L736.635 171.764L737.093 172.932L738.024 172.568ZM744.04 171.672H745.04V170.512L743.893 170.683L744.04 171.672ZM744.04 255V256H745.04V255H744.04ZM712.68 255H711.68V256H712.68V255ZM712.68 159V158H711.68V159H712.68ZM763.752 159L764.691 158.656L764.451 158H763.752V159ZM792.424 237.208V238.208H793.856L793.363 236.864L792.424 237.208ZM781.032 237.208L780.092 236.867L779.605 238.208H781.032V237.208ZM809.448 159V158H808.747L808.508 158.658L809.448 159ZM859.52 159V255H861.52V159H859.52ZM860.52 254H829.16V256H860.52V254ZM830.16 255V171.416H828.16V255H830.16ZM829.033 172.408L835.049 173.176L835.303 171.192L829.287 170.424L829.033 172.408ZM834.244 171.821L801.988 254.637L803.852 255.363L836.108 172.547L834.244 171.821ZM802.92 254H770.28V256H802.92V254ZM771.211 254.636L738.955 172.204L737.093 172.932L769.349 255.364L771.211 254.636ZM738.171 173.557L744.187 172.661L743.893 170.683L737.877 171.579L738.171 173.557ZM743.04 171.672V255H745.04V171.672H743.04ZM744.04 254H712.68V256H744.04V254ZM713.68 255V159H711.68V255H713.68ZM712.68 160H763.752V158H712.68V160ZM762.813 159.344L791.485 237.552L793.363 236.864L764.691 158.656L762.813 159.344ZM792.424 236.208H781.032V238.208H792.424V236.208ZM781.972 237.549L810.388 159.341L808.508 158.658L780.092 236.867L781.972 237.549ZM809.448 160H860.52V158H809.448V160ZM954.138 163.352L953.711 164.256L953.719 164.26L953.726 164.263L954.138 163.352ZM968.346 175.512L967.493 176.035L967.497 176.041L968.346 175.512ZM968.346 212.504L969.195 213.033L969.199 213.027L968.346 212.504ZM954.138 224.664L954.555 225.573L954.56 225.57L954.138 224.664ZM891.29 228.888H890.29V229.888H891.29V228.888ZM891.29 203.16V202.16H890.29V203.16H891.29ZM937.242 200.728L937.913 201.47L937.242 200.728ZM937.242 187.16L936.571 187.902L936.581 187.911L936.591 187.919L937.242 187.16ZM894.106 184.728L893.399 184.021L891.692 185.728H894.106V184.728ZM908.954 169.88H909.954V167.466L908.247 169.173L908.954 169.88ZM908.954 255V256H909.954V255H908.954ZM875.93 255H874.93V256H875.93V255ZM875.93 159V158H874.93V159H875.93ZM931.866 160C940.462 160 947.733 161.433 953.711 164.256L954.565 162.448C948.255 159.468 940.678 158 931.866 158V160ZM953.726 164.263C959.792 167.005 964.366 170.932 967.493 176.035L969.199 174.989C965.841 169.511 960.942 165.331 954.55 162.441L953.726 164.263ZM967.497 176.041C970.627 181.064 972.21 187.019 972.21 193.944H974.21C974.21 186.704 972.551 180.371 969.195 174.983L967.497 176.041ZM972.21 193.944C972.21 200.869 970.627 206.869 967.493 211.981L969.199 213.027C972.551 207.557 974.21 201.184 974.21 193.944H972.21ZM967.497 211.975C964.369 216.997 959.791 220.928 953.716 223.757L954.56 225.57C960.943 222.597 965.838 218.422 969.195 213.033L967.497 211.975ZM953.721 223.755C947.74 226.496 940.466 227.888 931.866 227.888V229.888C940.674 229.888 948.248 228.464 954.555 225.573L953.721 223.755ZM931.866 227.888H891.29V229.888H931.866V227.888ZM892.29 228.888V203.16H890.29V228.888H892.29ZM891.29 204.16H929.69V202.16H891.29V204.16ZM929.69 204.16C933.095 204.16 935.882 203.307 937.913 201.47L936.571 199.986C935.018 201.392 932.771 202.16 929.69 202.16V204.16ZM937.913 201.47C939.956 199.621 940.93 197.066 940.93 193.944H938.93C938.93 196.624 938.112 198.592 936.571 199.986L937.913 201.47ZM940.93 193.944C940.93 190.749 939.963 188.175 937.893 186.401L936.591 187.919C938.105 189.217 938.93 191.166 938.93 193.944H940.93ZM937.913 186.418C935.882 184.581 933.095 183.728 929.69 183.728V185.728C932.771 185.728 935.018 186.496 936.571 187.902L937.913 186.418ZM929.69 183.728H894.106V185.728H929.69V183.728ZM894.813 185.435L909.661 170.587L908.247 169.173L893.399 184.021L894.813 185.435ZM907.954 169.88V255H909.954V169.88H907.954ZM908.954 254H875.93V256H908.954V254ZM876.93 255V159H874.93V255H876.93ZM875.93 160H931.866V158H875.93V160Z" fill="white" fill-opacity="0.22" mask="url(#path-1-outside-1_278_275)"/>
</svg>
