<svg width="44" height="41" viewBox="0 0 44 41" fill="none" xmlns="http://www.w3.org/2000/svg">
<path d="M40.7143 17.0834L11.218 17.0834L22.0377 5.83249C23.3208 4.49839 23.3208 2.33496 22.0377 1.00063C21.3961 0.333696 20.5551 2.04961e-06 19.7142 2.12313e-06C18.8733 2.19665e-06 18.0324 0.333693 17.391 1.00086L0.962385 18.0842C-0.320799 19.4183 -0.320799 21.5817 0.962386 22.9161L17.391 39.9994C18.674 41.3335 20.7545 41.3335 22.0377 39.9994C23.3209 38.6653 23.3209 36.5019 22.0377 35.1676L11.218 23.9167L40.7143 23.9167C42.5289 23.9167 44 22.3869 44 20.5C44 18.6131 42.5289 17.0834 40.7143 17.0834Z" fill="white"/>
</svg>
