<svg width="82" height="77" viewBox="0 0 82 77" fill="none" xmlns="http://www.w3.org/2000/svg">
<path d="M61.4555 45.2618L62.262 44.4166H61.0937H6.12339C3.03958 44.4166 0.5 41.7898 0.5 38.5C0.5 35.2101 3.03958 32.5833 6.12339 32.5833H61.0937H62.262L61.4555 31.7381L41.2915 10.6084C39.0845 8.29566 39.0845 4.53662 41.2915 2.22434C43.4859 -0.0747989 47.0338 -0.0747538 49.2278 2.22431L79.8447 34.3077C82.0518 36.6204 82.0517 40.3795 79.8448 42.6917L80.2065 43.037L79.8447 42.6918L49.2278 74.7752L49.2277 74.7752C48.1281 75.9279 46.6922 76.5 45.2599 76.5C43.8275 76.5 42.3916 75.9279 41.2915 74.7756C39.0845 72.4628 39.0845 68.7038 41.2915 66.3915L40.9298 66.0463L41.2915 66.3915L61.4555 45.2618Z" stroke="#ED8548"/>
</svg>
