<svg width="52" height="52" viewBox="0 0 52 52" fill="none" xmlns="http://www.w3.org/2000/svg">
<circle cx="25.7433" cy="26" r="25.6857" fill="#DE7301"/>
<path d="M17.5679 27.1229H31.1172L26.1471 32.2071C25.5577 32.8099 25.5577 33.7876 26.1471 34.3905C26.4419 34.6919 26.8282 34.8427 27.2144 34.8427C27.6007 34.8427 27.987 34.6919 28.2816 34.3904L35.8282 26.6707C36.4177 26.0678 36.4177 25.0902 35.8282 24.4872L28.2816 16.7675C27.6923 16.1646 26.7366 16.1646 26.1471 16.7675C25.5577 17.3703 25.5577 18.3479 26.1471 18.9509L31.1172 24.035H17.5679C16.7344 24.035 16.0586 24.7263 16.0586 25.579C16.0586 26.4317 16.7344 27.1229 17.5679 27.1229Z" fill="white"/>
</svg>
