<svg width="189" height="18" viewBox="0 0 189 18" fill="none" xmlns="http://www.w3.org/2000/svg">
<path fill-rule="evenodd" clip-rule="evenodd" d="M121.255 0.665249C126.231 0.407069 131.969 1.43917 137.265 1.26688L137.231 1.71941C137.651 1.77498 137.613 1.29326 138.012 1.3235C138.566 1.21852 138.026 2.06884 138.725 1.83264C138.938 1.79661 138.76 1.56501 138.6 1.51971C138.904 1.50486 139.506 1.56471 139.758 2.06732C140.263 2.04402 139.403 1.44786 140.089 1.63259C142.451 2.31406 145.337 1.42815 147.951 2.83989C152.518 3.00104 157.673 3.58134 162.848 4.27216C163.966 4.42326 164.953 4.71133 165.821 4.64912C166.604 4.59472 168.044 4.9314 168.942 5.03733C169.936 5.15536 170.969 5.69348 171.743 5.70472C171.281 5.69818 173.892 5.25123 173.523 5.9913C175.477 5.57524 177.798 6.6139 179.777 6.61688C180.102 6.57044 180.048 6.85552 180.039 7.09191C180.517 6.51654 181.339 7.3042 181.716 6.76387C181.817 7.71963 182.745 6.49573 183.012 7.46886C183.881 6.78092 184.909 7.74538 185.973 7.99666C186.725 8.17689 188.045 7.81707 188.152 8.92508C187.328 8.89583 186.148 9.38475 183.679 8.58608C184.059 8.9847 182.37 8.98467 182.349 8.33361C181.642 9.28038 179.889 7.96233 179.296 9.01724C178.805 8.84257 179.303 8.67645 179.045 8.38666C177.073 8.72554 175.872 7.88546 173.984 7.85146C174.992 8.96135 176.37 9.25068 177.932 9.2173C178.432 9.2647 177.929 9.56316 178.331 9.85913C178.872 9.74838 178.625 9.61591 178.828 9.28516C180.932 10.279 184.852 10.1589 187.078 11.2804C185.242 11.056 182.621 11.4594 181.133 10.5265C178.624 10.6114 174.463 10.2818 171.301 9.6298C171.09 9.58534 170.595 9.70904 171.027 9.30562C170.383 9.67401 169.694 9.40372 168.779 9.28696C154.203 7.42868 137.216 6.84783 123.383 6.45861C107.883 6.01891 93.2762 6.11622 77.735 6.96289C53.5797 8.27565 30.8623 12.5419 9.07012 16.2382C7.09385 16.572 5.1547 17.0935 3.14739 17.1595C2.62513 17.0298 2.18107 16.2993 2.65196 15.7518C1.87446 15.6028 1.50389 15.9351 0.700693 15.7557C0.435829 15.3706 0.350177 14.8378 0.205265 14.348C0.865356 13.6443 1.69251 13.138 2.71706 12.8601C3.01729 12.5937 2.76455 12.4797 2.77457 12.1012C8.08728 9.80626 14.1768 7.91625 20.5393 7.35066C30.8961 6.42876 41.5782 4.29416 51.7526 3.31578C54.2022 3.07947 56.3473 3.16616 58.9707 3.09947C62.23 3.01933 66.4499 2.33405 70.4113 2.5963C72.8634 2.75841 75.7721 2.13021 78.708 2.0066C92.7124 1.42274 108.894 0.866411 122.725 1.22699C122.516 0.158738 121.685 1.08188 121.269 0.66159L121.255 0.665249ZM173.684 7.68648L172.937 7.62987C172.747 8.22704 173.782 8.30546 173.684 7.68648Z" fill="white"/>
</svg>
