<svg width="463" height="48" viewBox="0 0 463 48" fill="none" xmlns="http://www.w3.org/2000/svg">
<g clip-path="url(#clip0_585_16)">
<path fill-rule="evenodd" clip-rule="evenodd" d="M296.719 14.8572C308.918 14.7801 323.17 16.0271 336.169 16.0481L336.149 16.5014C337.19 16.5726 337.029 16.0873 338.014 16.1323C339.362 16.0471 338.152 16.8816 339.839 16.6699C340.357 16.6415 339.885 16.4023 339.486 16.3509C340.232 16.3471 341.722 16.4293 342.41 16.9435C343.651 16.9386 341.452 16.3082 343.165 16.5189C349.067 17.29 356.039 16.5057 362.665 18.0197C373.916 18.3489 386.674 19.1207 399.495 20.0043C402.266 20.197 404.731 20.5226 406.857 20.4919C408.776 20.4659 412.365 20.8569 414.586 20.9962C417.048 21.1512 419.663 21.7296 421.568 21.7693C420.432 21.7458 426.787 21.3924 425.984 22.1224C430.732 21.776 436.583 22.9044 441.449 22.9799C442.243 22.9452 442.149 23.2296 442.161 23.4667C443.255 22.9062 445.388 23.7276 446.239 23.1986C446.62 24.1625 448.73 22.9669 449.523 23.9543C451.563 23.295 454.227 24.3016 456.878 24.593C458.752 24.8016 461.948 24.4885 462.367 25.6055C460.337 25.546 457.503 25.9939 451.32 25.1011C452.312 25.5155 448.157 25.4536 448.015 24.7987C446.411 25.724 441.915 24.3357 440.604 25.3737C439.373 25.1802 440.574 25.0316 439.899 24.731C435.098 24.9992 432.026 24.1113 427.38 24.008C430.014 25.1599 433.444 25.501 437.278 25.5247C438.516 25.5907 437.32 25.872 438.351 26.1841C439.664 26.0927 439.039 25.9505 439.49 25.6257C444.804 26.7012 454.427 26.7241 460.056 27.9323C455.51 27.6396 449.123 27.9489 445.332 26.9572C439.177 26.9506 428.898 26.4671 421.032 25.6962C420.506 25.6438 419.307 25.7499 420.313 25.3605C418.781 25.707 417.049 25.4102 414.782 25.2594C378.682 22.8586 336.832 21.6528 302.765 20.7551C264.593 19.7456 228.691 19.3083 190.597 19.5896C131.388 20.0235 76.1299 23.4772 23.0669 26.3922C18.2545 26.6552 13.5598 27.1081 8.63351 27.1008C7.33115 26.9514 6.13661 26.2013 7.21746 25.6686C5.28479 25.4904 4.42036 25.8106 2.42022 25.6009C1.71483 25.2044 1.42934 24.666 1.00418 24.1687C2.52828 23.4859 4.49092 23.0076 6.97102 22.7659C7.67179 22.5093 7.03433 22.3855 7.00574 22.0056C19.7461 19.8947 34.4532 18.2191 50.0179 17.884C75.3537 17.3372 101.319 15.5841 126.198 14.9739C132.188 14.8263 137.475 14.9919 143.916 15.021C151.918 15.0599 162.198 14.5261 171.975 14.9346C178.027 15.1873 185.091 14.6628 192.292 14.6461C226.644 14.5726 266.355 14.6065 300.411 15.4753C299.749 14.3945 297.836 15.2915 296.753 14.854L296.719 14.8572ZM426.618 23.8312L424.773 23.747C424.39 24.34 426.946 24.4566 426.618 23.8312Z" fill="#012B68"/>
<path fill-rule="evenodd" clip-rule="evenodd" d="M272.017 14.3397C273.693 13.8389 278.511 14.4658 274.962 14.4742C273.905 14.478 273.902 14.2933 272.017 14.3397Z" fill="#012B68"/>
</g>
<defs>
<clipPath id="clip0_585_16">
<rect width="460.949" height="26" fill="white" transform="translate(2.04883 0.777832) rotate(2.61433)"/>
</clipPath>
</defs>
</svg>
