<svg width="196" height="200" viewBox="0 0 196 200" fill="none" xmlns="http://www.w3.org/2000/svg">
<g filter="url(#filter0_ddi_271_30)">
<rect x="40" y="25" width="116" height="120" rx="58" fill="#0E4095" shape-rendering="crispEdges"/>
<g clip-path="url(#clip0_271_30)">
<path d="M87.5861 104.563C86.8666 104.561 86.1599 104.373 85.5354 104.015C84.1291 103.218 83.2549 101.672 83.2549 99.9922V66.0078C83.2549 64.3239 84.1291 62.7817 85.5354 61.9848C86.1747 61.6173 86.9011 61.4284 87.6385 61.4376C88.3759 61.4469 89.0972 61.6541 89.7271 62.0375L118.772 79.4235C119.377 79.803 119.876 80.3301 120.222 80.9553C120.568 81.5804 120.75 82.2832 120.75 82.9977C120.75 83.7122 120.568 84.4149 120.222 85.0401C119.876 85.6653 119.377 86.1923 118.772 86.5719L89.7225 103.963C89.0778 104.352 88.3394 104.56 87.5861 104.563Z" fill="#DDEAFF"/>
</g>
<g clip-path="url(#clip1_271_30)">
<path d="M58.64 103.914C55.9644 98.2738 54.4609 91.9627 54.4609 85.3034C54.4609 79.2982 55.6756 73.5818 57.8755 68.3835" stroke="white" stroke-width="0.849395" stroke-miterlimit="10"/>
<path d="M137.515 67.2963C140.012 72.7834 141.405 78.882 141.405 85.3034C141.405 92.3025 139.749 98.9108 136.818 104.772" stroke="white" stroke-width="0.849395" stroke-miterlimit="10"/>
<path d="M61.5791 54.4874L63.6432 52.3215C64.0253 51.9222 64.4331 51.6419 64.8748 51.4721C65.3164 51.3107 65.7582 51.2682 66.1999 51.3616C66.6415 51.4551 67.0577 51.6844 67.4399 52.0581C67.8222 52.4233 68.077 52.8226 68.1874 53.2558C68.3064 53.689 68.2894 54.1307 68.1449 54.5808C68.0005 55.031 67.7457 55.4557 67.3635 55.8549L66.1999 57.0781L68.4422 59.21L67.5419 60.1529L61.5791 54.4874ZM66.5481 55.031C66.8539 54.7082 67.0068 54.36 67.0068 53.9862C67.0068 53.6125 66.8539 53.2728 66.5481 52.984C66.2338 52.6867 65.894 52.5508 65.5203 52.5763C65.1551 52.6017 64.8153 52.7717 64.5095 53.0944L63.3204 54.343L65.3589 56.2796L66.5481 55.031Z" fill="white"/>
<path d="M68.4756 47.8706L69.5373 47.1061L73.6654 52.8481L76.5534 50.7755L77.2328 51.7183L73.2831 54.5553L68.4841 47.8706H68.4756Z" fill="white"/>
<path d="M77.4541 42.3325L78.9236 41.6615L84.9713 47.947L83.7057 48.5246L82.3637 47.1062L79.3228 48.4991L79.5097 50.4443L78.2441 51.0219L77.4626 42.341L77.4541 42.3325ZM81.5227 46.2143L78.7877 43.3093L79.1784 47.2845L81.5142 46.2143H81.5227Z" fill="white"/>
<path d="M87.1962 43.5811L83.3994 39.8522L84.8264 39.5125L87.519 42.1966L88.6911 38.5866L90.1181 38.2469L88.4448 43.2923L89.3112 46.9022L88.0541 47.208L87.1877 43.5981L87.1962 43.5811Z" fill="white"/>
<path d="M96.7861 37.5928L98.1877 37.6608L100.09 44.3795L102.672 37.8901L104.074 37.9581L100.744 46.0273L99.2919 45.9509L96.8031 37.5844L96.7861 37.5928Z" fill="white"/>
<path d="M107.285 38.6292L108.559 38.901L106.843 46.9447L105.569 46.6729L107.285 38.6292Z" fill="white"/>
<path d="M112.509 39.8778L115.014 40.8716C115.804 41.1858 116.433 41.619 116.892 42.1711C117.35 42.7232 117.622 43.3518 117.715 44.0483C117.809 44.7533 117.707 45.4838 117.401 46.2398C117.104 46.9957 116.679 47.5903 116.127 48.0405C115.575 48.4906 114.946 48.7624 114.233 48.8474C113.519 48.9323 112.763 48.8219 111.974 48.5076L109.468 47.5139L112.509 39.8693V39.8778ZM112.424 47.4459C112.967 47.6582 113.477 47.7347 113.97 47.6667C114.462 47.5988 114.895 47.4034 115.278 47.0806C115.66 46.7579 115.966 46.3162 116.187 45.7556C116.407 45.195 116.492 44.6684 116.441 44.1672C116.382 43.6661 116.204 43.2329 115.889 42.8506C115.575 42.4684 115.15 42.1711 114.615 41.9588L113.299 41.4322L111.116 46.9192L112.432 47.4374L112.424 47.4459Z" fill="white"/>
<path d="M122.226 44.3031L126.736 47.31L126.091 48.2783L122.659 45.9934L121.351 47.964L124.596 50.1215L123.95 51.0898L120.706 48.9323L119.381 50.9199L122.812 53.2048L122.167 54.1731L117.656 51.1662L122.218 44.3201L122.226 44.3031Z" fill="white"/>
<path d="M125.496 56.8996C125.292 56.3815 125.199 55.8549 125.216 55.3113C125.233 54.7677 125.352 54.241 125.581 53.7314C125.81 53.2133 126.142 52.7461 126.583 52.3299C127.025 51.9052 127.509 51.5994 128.036 51.404C128.563 51.2086 129.098 51.1153 129.632 51.1322C130.168 51.1492 130.694 51.2766 131.204 51.5059C131.714 51.7353 132.172 52.0666 132.58 52.4997C132.988 52.933 133.294 53.4086 133.497 53.9268C133.701 54.4449 133.795 54.98 133.786 55.5236C133.778 56.0672 133.651 56.5939 133.429 57.1035C133.209 57.6132 132.869 58.0803 132.427 58.4965C131.986 58.9127 131.501 59.227 130.975 59.4224C130.448 59.6177 129.921 59.7112 129.378 59.6942C128.834 59.6772 128.308 59.5582 127.798 59.3289C127.288 59.0995 126.83 58.7683 126.422 58.3351C126.014 57.9019 125.709 57.4263 125.505 56.9081L125.496 56.8996ZM128.613 58.3351C129.114 58.471 129.624 58.4795 130.134 58.3351C130.644 58.1992 131.111 57.9359 131.527 57.5366C131.952 57.1375 132.241 56.6873 132.402 56.1861C132.563 55.685 132.589 55.1838 132.478 54.6742C132.368 54.1731 132.121 53.7059 131.723 53.2897C131.331 52.882 130.89 52.6017 130.389 52.4658C129.888 52.3299 129.386 52.3299 128.877 52.4658C128.367 52.6017 127.9 52.865 127.484 53.2642C127.068 53.6549 126.779 54.1051 126.617 54.6147C126.456 55.1244 126.43 55.6255 126.541 56.1267C126.651 56.6363 126.898 57.0865 127.288 57.5027C127.679 57.9104 128.121 58.1907 128.622 58.3266L128.613 58.3351Z" fill="white"/>
<path opacity="0.8" d="M127.95 113.897L126.695 114.476L125.176 110.965C125.137 111.131 125.064 111.296 124.97 111.467C124.403 112.508 123.582 112.914 123.033 113.076C122.321 113.285 121.502 113.282 120.593 112.787C119.698 112.298 119.121 111.539 118.869 110.717C118.612 109.842 118.671 108.952 119.21 107.964C119.871 106.753 120.724 106.347 121.315 106.174C121.898 106.014 122.732 105.956 123.72 106.495C124.352 106.84 124.773 107.258 125.162 107.829C125.654 108.525 125.856 109.063 126.146 109.751L127.95 113.897ZM123.94 110.632C124.191 110.171 124.265 109.63 124.103 109.08C123.927 108.557 123.541 108.107 123.08 107.855C122.606 107.596 122.044 107.529 121.549 107.686C121.053 107.843 120.617 108.203 120.366 108.664C120.1 109.151 120.072 109.734 120.183 110.187C120.321 110.656 120.654 111.111 121.193 111.405C121.681 111.671 122.268 111.753 122.777 111.603C123.219 111.451 123.674 111.119 123.94 110.632Z" fill="white"/>
<path d="M120.547 120.854L117.577 123.118L117.699 120.705C117.748 119.781 117.781 119.058 117.74 118.41C117.699 117.687 117.549 116.971 117.04 116.303C116.094 115.063 114.341 114.57 112.647 115.861C111.645 116.625 111.418 117.515 111.377 118.055C111.319 118.647 111.482 119.504 112.037 120.306L113.206 119.415C112.669 118.636 112.631 117.571 113.513 116.898C114.396 116.225 115.31 116.509 115.82 117.177C116.174 117.642 116.247 118.134 116.275 118.641C116.292 119.231 116.286 120.065 116.267 120.609L116.058 126.049L121.402 121.975L120.547 120.854Z" fill="white"/>
<path d="M100.427 121.729C99.5697 121.132 98.7088 120.924 97.7949 120.88C96.4165 120.813 95.2019 121.084 94.1206 122.007C93.2428 122.76 92.4165 123.996 92.3266 125.839C92.2571 127.262 92.6151 128.541 93.7453 129.693C94.3176 130.276 95.386 131.155 97.2138 131.244C97.918 131.278 98.9441 131.178 99.9921 130.629L100.081 128.816C99.4992 129.343 98.5111 129.895 97.3275 129.838C95.2001 129.734 93.7516 128.026 93.8547 125.914C93.9623 123.711 95.5088 122.18 97.6812 122.286C98.2655 122.314 99.2642 122.468 100.339 123.527L100.427 121.729Z" fill="white"/>
<path d="M81.1219 114.502L75.3738 122.691L77.4241 124.131C78.0502 124.57 79.1468 125.175 80.2801 124.944C80.9746 124.79 81.4408 124.439 81.8544 123.85C82.2078 123.347 82.4974 122.725 82.3915 121.936C82.2879 121.222 81.8708 120.746 81.7493 120.606C81.9938 120.649 82.3427 120.674 82.7596 120.472C83.1887 120.278 83.4532 120.006 83.6859 119.674C84.1599 118.999 84.3181 118.304 84.1728 117.597C83.9859 116.714 83.43 116.123 82.3619 115.373L81.1219 114.502ZM81.5469 116.56L81.9766 116.862C82.3326 117.112 82.6714 117.386 82.7556 117.867C82.841 118.293 82.671 118.614 82.4987 118.859C82.3005 119.142 82.0051 119.484 81.5245 119.568C81.0317 119.644 80.5884 119.388 80.2814 119.172L79.9008 118.905L81.5469 116.56ZM79.1769 119.936L79.9627 120.488C80.4047 120.798 80.8822 121.188 80.9933 121.761C81.0591 122.137 80.9714 122.497 80.7215 122.853C80.4544 123.234 80.0621 123.453 79.6786 123.477C79.1662 123.502 78.5706 123.176 78.2146 122.926L77.4534 122.392L79.1769 119.936Z" fill="white"/>
<path d="M75.0689 104.655L66.0309 108.947L66.6872 110.329L70.3593 108.585L70.6552 109.209C70.9705 109.873 71.4578 110.654 72.4085 111.083C73.3993 111.526 74.2631 111.281 74.8051 111.024C75.6316 110.632 76.3251 109.854 76.4662 108.857C76.591 108.001 76.2784 107.203 76.0147 106.647L75.0689 104.655ZM74.4514 106.642L74.7409 107.252C75.4873 108.824 74.6895 109.452 74.1881 109.69C73.3344 110.095 72.4951 109.796 71.9289 108.604L71.633 107.98L74.4514 106.642Z" fill="white"/>
</g>
</g>
<defs>
<filter id="filter0_ddi_271_30" x="0" y="0" width="196" height="200" filterUnits="userSpaceOnUse" color-interpolation-filters="sRGB">
<feFlood flood-opacity="0" result="BackgroundImageFix"/>
<feColorMatrix in="SourceAlpha" type="matrix" values="0 0 0 0 0 0 0 0 0 0 0 0 0 0 0 0 0 0 127 0" result="hardAlpha"/>
<feOffset dy="15"/>
<feGaussianBlur stdDeviation="20"/>
<feComposite in2="hardAlpha" operator="out"/>
<feColorMatrix type="matrix" values="0 0 0 0 0 0 0 0 0 0.152941 0 0 0 0 0.486275 0 0 0 1 0"/>
<feBlend mode="normal" in2="BackgroundImageFix" result="effect1_dropShadow_271_30"/>
<feColorMatrix in="SourceAlpha" type="matrix" values="0 0 0 0 0 0 0 0 0 0 0 0 0 0 0 0 0 0 127 0" result="hardAlpha"/>
<feOffset dy="10"/>
<feGaussianBlur stdDeviation="10"/>
<feComposite in2="hardAlpha" operator="out"/>
<feColorMatrix type="matrix" values="0 0 0 0 0.00392157 0 0 0 0 0.00392157 0 0 0 0 0.00392157 0 0 0 0.5 0"/>
<feBlend mode="normal" in2="effect1_dropShadow_271_30" result="effect2_dropShadow_271_30"/>
<feBlend mode="normal" in="SourceGraphic" in2="effect2_dropShadow_271_30" result="shape"/>
<feColorMatrix in="SourceAlpha" type="matrix" values="0 0 0 0 0 0 0 0 0 0 0 0 0 0 0 0 0 0 127 0" result="hardAlpha"/>
<feOffset dy="-1"/>
<feGaussianBlur stdDeviation="0.5"/>
<feComposite in2="hardAlpha" operator="arithmetic" k2="-1" k3="1"/>
<feColorMatrix type="matrix" values="0 0 0 0 1 0 0 0 0 1 0 0 0 0 1 0 0 0 0.55 0"/>
<feBlend mode="normal" in2="shape" result="effect3_innerShadow_271_30"/>
</filter>
<clipPath id="clip0_271_30">
<rect width="60" height="60" fill="white" transform="translate(72 53)"/>
</clipPath>
<clipPath id="clip1_271_30">
<rect width="87.9389" height="96" fill="white" transform="translate(54.0303 37)"/>
</clipPath>
</defs>
</svg>
