<svg width="49" height="48" viewBox="0 0 49 48" fill="none" xmlns="http://www.w3.org/2000/svg">
<path fill-rule="evenodd" clip-rule="evenodd" d="M1.5 3C2.32843 3 3 2.32843 3 1.5C3 0.671573 2.32843 0 1.5 0C0.671573 0 0 0.671573 0 1.5C0 2.32843 0.671573 3 1.5 3ZM1.5 48C2.32843 48 3 47.3284 3 46.5C3 45.6716 2.32843 45 1.5 45C0.671573 45 0 45.6716 0 46.5C0 47.3284 0.671573 48 1.5 48ZM49 1.5C49 2.32843 48.3284 3 47.5 3C46.6716 3 46 2.32843 46 1.5C46 0.671573 46.6716 0 47.5 0C48.3284 0 49 0.671573 49 1.5ZM47.5 48C48.3284 48 49 47.3284 49 46.5C49 45.6716 48.3284 45 47.5 45C46.6716 45 46 45.6716 46 46.5C46 47.3284 46.6716 48 47.5 48Z" fill="#D9D9D9"/>
</svg>
